<svg width="131" height="21" viewBox="0 0 131 21" fill="none" xmlns="http://www.w3.org/2000/svg">
<ellipse cx="42.1301" cy="10.1351" rx="2.98559" ry="2.94244" fill="#DBDBDB"/>
<ellipse cx="75.3031" cy="10.1351" rx="2.98559" ry="2.94244" fill="#DBDBDB"/>
<ellipse cx="58.7166" cy="10.1351" rx="2.98559" ry="2.94244" fill="#4AAD9B"/>
<ellipse cx="91.8899" cy="10.1351" rx="2.98559" ry="2.94244" fill="#DBDBDB"/>
<ellipse cx="119.424" cy="10.462" rx="10.6154" ry="10.462" fill="#4AAD9B"/>
<path d="M121.524 10.7497L117.986 14.6729C117.908 14.7595 117.799 14.8123 117.682 14.8197C117.565 14.827 117.45 14.7883 117.362 14.7121C117.274 14.6358 117.221 14.5282 117.213 14.4129C117.206 14.2977 117.245 14.1843 117.323 14.0975L120.6 10.4619L117.323 6.82639C117.251 6.73892 117.217 6.62762 117.226 6.51571C117.236 6.4038 117.289 6.29991 117.375 6.2257C117.46 6.1515 117.572 6.11271 117.686 6.11742C117.799 6.12213 117.907 6.16998 117.986 6.25098L121.524 10.1742C121.595 10.2538 121.634 10.3561 121.634 10.4619C121.634 10.5678 121.595 10.6701 121.524 10.7497Z" fill="white"/>
<ellipse cx="10.6154" cy="10.462" rx="10.6154" ry="10.462" fill="#4AAD9B"/>
<path d="M8.51468 10.7497L12.0532 14.6729C12.1306 14.7595 12.2398 14.8123 12.3567 14.8197C12.4737 14.827 12.5888 14.7883 12.6768 14.7121C12.7647 14.6358 12.8182 14.5282 12.8257 14.4129C12.8332 14.2977 12.7939 14.1843 12.7166 14.0975L9.43911 10.4619L12.7166 6.82639C12.7881 6.73892 12.8226 6.62762 12.8128 6.51571C12.8031 6.4038 12.7499 6.29991 12.6643 6.2257C12.5788 6.1515 12.4675 6.11271 12.3536 6.11742C12.2397 6.12213 12.1321 6.16998 12.0532 6.25098L8.51468 10.1742C8.44377 10.2538 8.40466 10.3561 8.40466 10.4619C8.40466 10.5678 8.44377 10.6701 8.51468 10.7497Z" fill="white"/>
</svg>
