<svg width="52" height="59" viewBox="0 0 52 59" fill="none" xmlns="http://www.w3.org/2000/svg">
<path fill-rule="evenodd" clip-rule="evenodd" d="M47.299 21.104H48.709C50.5259 21.104 51.9999 22.5843 52 24.411V41.6076C52 43.4332 50.526 44.9143 48.7091 44.9143H47.2992V56.6862C47.2992 57.9617 46.2659 59 44.9965 59H7.00346C5.73297 59 4.70085 57.9616 4.70085 56.6862V44.9143H3.29114C1.47367 44.9143 0 43.4332 0 41.6076V24.4105C0 22.5836 1.47367 21.1035 3.29114 21.1035H4.70074V2.31383C4.70074 1.03828 5.73286 0 7.00335 0H34.8258C34.9158 0 35.0046 0.0127469 35.0901 0.0330991C35.1014 0.0360425 35.112 0.0398833 35.1227 0.0437363C35.1323 0.0471746 35.1419 0.0506226 35.1519 0.0534512C35.2306 0.077124 35.307 0.109902 35.3791 0.149428C35.4049 0.163781 35.4297 0.177707 35.4544 0.19431C35.5375 0.248832 35.6162 0.311817 35.6837 0.387548C35.6851 0.389753 35.6868 0.391055 35.6888 0.392477C35.69 0.393403 35.6914 0.394379 35.6927 0.395689L47.0136 13.3902C47.1985 13.6015 47.2844 13.8681 47.2867 14.1395L47.2891 14.1578C47.2941 14.1948 47.299 14.2317 47.299 14.2683V21.104ZM33.6745 2.31426H7.00335V21.1048H44.9964V15.3089H34.8258C34.1906 15.3089 33.6745 14.7912 33.6745 14.152V2.31426ZM30.4601 29.272C30.4601 30.9635 29.899 32.3988 28.8793 33.3738C27.552 34.6296 25.5879 35.1927 23.2932 35.1927C22.7827 35.1927 22.3229 35.1679 21.9658 35.1164V41.2933H18.1142V24.2492C19.3138 24.043 20.9969 23.8899 23.3693 23.8899C25.7669 23.8899 27.476 24.3508 28.6252 25.2741C29.721 26.1452 30.4601 27.5808 30.4601 29.272ZM6.35403 38.0126L5.91952 41.1652C6.68525 41.4228 7.85905 41.5753 8.7511 41.5748C12.5257 41.5748 14.8731 39.8581 14.8731 34.9364V24.0176H10.9961V34.8856C10.9961 37.5765 9.9767 38.321 8.34302 38.321C7.57783 38.321 6.89003 38.1923 6.35403 38.0126ZM44.9964 56.0599H7.00335V44.9143H44.9964V56.0599ZM41.5571 41.473C43.8294 41.473 46.0995 40.9093 47.2979 40.4992H47.2978V31.3997H40.8948V34.4495H43.5482V38.0635C43.2425 38.2176 42.528 38.3205 41.6353 38.3205C38.4461 38.3205 36.2279 36.2186 36.2279 32.6559C36.2279 28.9137 38.6754 27.0676 41.9147 27.0676C43.8024 27.0676 44.9762 27.4009 45.9206 27.811L46.7368 24.6842C45.8958 24.2736 44.1857 23.8386 41.9664 23.8386C36.3279 23.8386 32.17 27.1194 32.1454 32.8611C32.119 35.399 32.9875 37.6545 34.5694 39.1408C36.1501 40.6783 38.4213 41.473 41.5571 41.473Z" fill="#77838F"/>
</svg>
