<svg width="425" height="290" viewBox="0 0 425 290" fill="none" xmlns="http://www.w3.org/2000/svg">
<g filter="url(#filter0_d)">
<rect x="60" y="150" width="335" height="100" rx="10" fill="white"/>
</g>
<path fill-rule="evenodd" clip-rule="evenodd" d="M110 230C126.569 230 140 216.569 140 200C140 183.431 126.569 170 110 170C93.4315 170 80 183.431 80 200C80 216.569 93.4315 230 110 230Z" fill="#FFD6EE" fill-opacity="0.5"/>
<path d="M120.267 198.94C120.788 198.94 121.21 199.404 121.21 199.977C121.21 200.542 120.798 201.002 120.285 201.013L120.267 201.013H99.7333C99.2122 201.013 98.7898 200.549 98.7898 199.977C98.7898 199.411 99.2022 198.951 99.7147 198.941L99.7333 198.94H120.267Z" fill="#F390CA"/>
<path d="M117.108 192C116.151 192 115.375 192.852 115.375 193.904V206.05C115.375 207.101 116.151 207.954 117.108 207.954C118.065 207.954 118.841 207.101 118.841 206.05V193.904C118.841 192.852 118.065 192 117.108 192Z" fill="#F390CA"/>
<path d="M102.892 192C101.935 192 101.159 192.852 101.159 193.904V206.05C101.159 207.101 101.935 207.954 102.892 207.954C103.85 207.954 104.626 207.101 104.626 206.05V193.904C104.626 192.852 103.85 192 102.892 192Z" fill="#F390CA"/>
<path d="M99.3384 195.47C98.5992 195.47 98 196.128 98 196.94V203.013C98 203.825 98.5992 204.484 99.3384 204.484C100.078 204.484 100.677 203.825 100.677 203.013V196.94C100.677 196.128 100.078 195.47 99.3384 195.47Z" fill="#F390CA"/>
<path d="M120.662 195.47C119.922 195.47 119.323 196.128 119.323 196.94V203.013C119.323 203.825 119.922 204.484 120.662 204.484C121.401 204.484 122 203.825 122 203.013V196.94C122 196.128 121.401 195.47 120.662 195.47Z" fill="#F390CA"/>
<path d="M157.851 208.047L161.104 216.168L164.358 208.047H166.061V218H164.748V214.124L164.871 209.94L161.604 218H160.599L157.338 209.961L157.468 214.124V218H156.155V208.047H157.851ZM172.746 218C172.673 217.854 172.614 217.594 172.568 217.221C171.98 217.831 171.279 218.137 170.463 218.137C169.734 218.137 169.134 217.932 168.665 217.521C168.2 217.107 167.968 216.583 167.968 215.949C167.968 215.179 168.259 214.582 168.843 214.158C169.431 213.73 170.256 213.516 171.317 213.516H172.548V212.935C172.548 212.493 172.416 212.142 172.151 211.882C171.887 211.618 171.497 211.485 170.982 211.485C170.531 211.485 170.153 211.599 169.848 211.827C169.542 212.055 169.39 212.331 169.39 212.654H168.118C168.118 212.285 168.248 211.93 168.508 211.588C168.772 211.242 169.128 210.968 169.574 210.768C170.025 210.567 170.52 210.467 171.058 210.467C171.91 210.467 172.577 210.681 173.061 211.109C173.544 211.533 173.794 212.119 173.812 212.866V216.271C173.812 216.95 173.899 217.49 174.072 217.891V218H172.746ZM170.647 217.036C171.044 217.036 171.42 216.934 171.775 216.729C172.131 216.523 172.388 216.257 172.548 215.929V214.411H171.557C170.007 214.411 169.232 214.865 169.232 215.771C169.232 216.168 169.365 216.478 169.629 216.701C169.893 216.924 170.233 217.036 170.647 217.036ZM179.37 211.738C179.179 211.706 178.971 211.69 178.748 211.69C177.919 211.69 177.356 212.044 177.06 212.75V218H175.795V210.604H177.025L177.046 211.458C177.461 210.797 178.049 210.467 178.81 210.467C179.056 210.467 179.243 210.499 179.37 210.562V211.738ZM183.369 217.104C183.82 217.104 184.215 216.968 184.552 216.694C184.889 216.421 185.076 216.079 185.112 215.669H186.309C186.286 216.093 186.14 216.496 185.871 216.879C185.602 217.262 185.242 217.567 184.791 217.795C184.344 218.023 183.87 218.137 183.369 218.137C182.362 218.137 181.56 217.802 180.963 217.132C180.37 216.457 180.074 215.537 180.074 214.37V214.158C180.074 213.438 180.206 212.798 180.471 212.237C180.735 211.677 181.113 211.242 181.605 210.932C182.102 210.622 182.688 210.467 183.362 210.467C184.192 210.467 184.88 210.715 185.427 211.212C185.978 211.709 186.272 212.354 186.309 213.146H185.112C185.076 212.668 184.894 212.276 184.565 211.971C184.242 211.661 183.841 211.506 183.362 211.506C182.72 211.506 182.221 211.738 181.865 212.203C181.514 212.663 181.339 213.331 181.339 214.206V214.445C181.339 215.298 181.514 215.954 181.865 216.414C182.216 216.874 182.717 217.104 183.369 217.104ZM188.995 211.499C189.556 210.811 190.285 210.467 191.183 210.467C192.746 210.467 193.534 211.349 193.548 213.112V218H192.283V213.105C192.279 212.572 192.156 212.178 191.914 211.923C191.677 211.668 191.306 211.54 190.8 211.54C190.39 211.54 190.03 211.649 189.72 211.868C189.41 212.087 189.168 212.374 188.995 212.729V218H187.73V207.5H188.995V211.499ZM202.94 218H201.669V209.571L199.119 210.508V209.359L202.742 207.999H202.94V218ZM208.484 212.408H209.435C210.032 212.399 210.501 212.242 210.843 211.937C211.185 211.631 211.355 211.219 211.355 210.699C211.355 209.533 210.774 208.949 209.612 208.949C209.065 208.949 208.628 209.106 208.3 209.421C207.976 209.731 207.814 210.143 207.814 210.658H206.55C206.55 209.87 206.837 209.216 207.411 208.696C207.99 208.172 208.724 207.91 209.612 207.91C210.551 207.91 211.287 208.159 211.82 208.655C212.354 209.152 212.62 209.842 212.62 210.727C212.62 211.16 212.479 211.579 212.196 211.984C211.918 212.39 211.538 212.693 211.055 212.894C211.602 213.067 212.023 213.354 212.319 213.755C212.62 214.156 212.771 214.646 212.771 215.225C212.771 216.118 212.479 216.826 211.896 217.351C211.312 217.875 210.553 218.137 209.619 218.137C208.685 218.137 207.924 217.884 207.336 217.378C206.753 216.872 206.461 216.204 206.461 215.375H207.732C207.732 215.899 207.903 216.318 208.245 216.633C208.587 216.947 209.045 217.104 209.619 217.104C210.23 217.104 210.697 216.945 211.021 216.626C211.344 216.307 211.506 215.849 211.506 215.252C211.506 214.673 211.328 214.229 210.973 213.919C210.617 213.609 210.104 213.45 209.435 213.44H208.484V212.408ZM214.596 219.982L213.878 219.49C214.306 218.893 214.53 218.278 214.548 217.645V216.503H215.785V217.494C215.785 217.954 215.671 218.415 215.443 218.875C215.22 219.335 214.938 219.704 214.596 219.982ZM227.249 218H220.728V217.091L224.173 213.263C224.683 212.684 225.034 212.215 225.226 211.854C225.422 211.49 225.52 211.114 225.52 210.727C225.52 210.207 225.362 209.781 225.048 209.448C224.733 209.116 224.314 208.949 223.79 208.949C223.161 208.949 222.671 209.129 222.32 209.489C221.974 209.845 221.801 210.341 221.801 210.979H220.536C220.536 210.063 220.83 209.323 221.418 208.758C222.01 208.193 222.801 207.91 223.79 207.91C224.715 207.91 225.447 208.154 225.984 208.642C226.522 209.125 226.791 209.77 226.791 210.576C226.791 211.556 226.167 212.723 224.918 214.076L222.252 216.968H227.249V218ZM234.83 213.755C234.83 215.236 234.577 216.337 234.071 217.057C233.565 217.777 232.775 218.137 231.699 218.137C230.637 218.137 229.851 217.786 229.341 217.084C228.83 216.378 228.566 215.325 228.548 213.926V212.237C228.548 210.774 228.801 209.688 229.307 208.977C229.812 208.266 230.605 207.91 231.686 207.91C232.757 207.91 233.545 208.254 234.051 208.942C234.557 209.626 234.816 210.683 234.83 212.114V213.755ZM233.565 212.025C233.565 210.954 233.415 210.175 233.114 209.688C232.813 209.195 232.337 208.949 231.686 208.949C231.038 208.949 230.567 209.193 230.271 209.681C229.974 210.168 229.822 210.918 229.812 211.93V213.953C229.812 215.029 229.967 215.824 230.277 216.339C230.592 216.849 231.066 217.104 231.699 217.104C232.324 217.104 232.786 216.863 233.087 216.38C233.392 215.897 233.552 215.136 233.565 214.097V212.025ZM242.972 218H236.45V217.091L239.896 213.263C240.406 212.684 240.757 212.215 240.948 211.854C241.144 211.49 241.242 211.114 241.242 210.727C241.242 210.207 241.085 209.781 240.771 209.448C240.456 209.116 240.037 208.949 239.513 208.949C238.884 208.949 238.394 209.129 238.043 209.489C237.697 209.845 237.523 210.341 237.523 210.979H236.259C236.259 210.063 236.553 209.323 237.141 208.758C237.733 208.193 238.524 207.91 239.513 207.91C240.438 207.91 241.169 208.154 241.707 208.642C242.245 209.125 242.514 209.77 242.514 210.576C242.514 211.556 241.889 212.723 240.641 214.076L237.975 216.968H242.972V218ZM248.468 218H247.196V209.571L244.646 210.508V209.359L248.27 207.999H248.468V218Z" fill="#576E82"/>
<path d="M162.602 191.031H157.836L156.766 194H155.219L159.562 182.625H160.875L165.227 194H163.688L162.602 191.031ZM158.289 189.797H162.156L160.219 184.477L158.289 189.797ZM170.617 186.844C170.398 186.807 170.161 186.789 169.906 186.789C168.958 186.789 168.315 187.193 167.977 188V194H166.531V185.547H167.938L167.961 186.523C168.435 185.768 169.107 185.391 169.977 185.391C170.258 185.391 170.471 185.427 170.617 185.5V186.844ZM175.305 194.156C174.159 194.156 173.227 193.781 172.508 193.031C171.789 192.276 171.43 191.268 171.43 190.008V189.742C171.43 188.904 171.589 188.156 171.906 187.5C172.229 186.839 172.677 186.323 173.25 185.953C173.828 185.578 174.453 185.391 175.125 185.391C176.224 185.391 177.078 185.753 177.688 186.477C178.297 187.201 178.602 188.237 178.602 189.586V190.188H172.875C172.896 191.021 173.138 191.695 173.602 192.211C174.07 192.721 174.664 192.977 175.383 192.977C175.893 192.977 176.326 192.872 176.68 192.664C177.034 192.456 177.344 192.18 177.609 191.836L178.492 192.523C177.784 193.612 176.721 194.156 175.305 194.156ZM175.125 186.578C174.542 186.578 174.052 186.792 173.656 187.219C173.26 187.641 173.016 188.234 172.922 189H177.156V188.891C177.115 188.156 176.917 187.589 176.562 187.188C176.208 186.781 175.729 186.578 175.125 186.578ZM187.016 191.883L188.984 185.547H190.531L187.133 195.305C186.607 196.711 185.771 197.414 184.625 197.414L184.352 197.391L183.812 197.289V196.117L184.203 196.148C184.693 196.148 185.073 196.049 185.344 195.852C185.62 195.654 185.846 195.292 186.023 194.766L186.344 193.906L183.328 185.547H184.906L187.016 191.883ZM191.32 189.695C191.32 188.867 191.482 188.122 191.805 187.461C192.133 186.799 192.586 186.289 193.164 185.93C193.747 185.57 194.411 185.391 195.156 185.391C196.307 185.391 197.237 185.789 197.945 186.586C198.659 187.383 199.016 188.443 199.016 189.766V189.867C199.016 190.69 198.857 191.43 198.539 192.086C198.227 192.737 197.776 193.245 197.188 193.609C196.604 193.974 195.932 194.156 195.172 194.156C194.026 194.156 193.096 193.758 192.383 192.961C191.674 192.164 191.32 191.109 191.32 189.797V189.695ZM192.773 189.867C192.773 190.805 192.99 191.557 193.422 192.125C193.859 192.693 194.443 192.977 195.172 192.977C195.906 192.977 196.49 192.69 196.922 192.117C197.354 191.539 197.57 190.732 197.57 189.695C197.57 188.768 197.349 188.018 196.906 187.445C196.469 186.867 195.885 186.578 195.156 186.578C194.443 186.578 193.867 186.862 193.43 187.43C192.992 187.997 192.773 188.81 192.773 189.867ZM206.047 193.164C205.484 193.826 204.659 194.156 203.57 194.156C202.669 194.156 201.982 193.896 201.508 193.375C201.039 192.849 200.802 192.073 200.797 191.047V185.547H202.242V191.008C202.242 192.289 202.763 192.93 203.805 192.93C204.909 192.93 205.643 192.518 206.008 191.695V185.547H207.453V194H206.078L206.047 193.164ZM218.547 191.758C218.547 191.367 218.398 191.065 218.102 190.852C217.81 190.633 217.297 190.445 216.562 190.289C215.833 190.133 215.253 189.945 214.82 189.727C214.393 189.508 214.076 189.247 213.867 188.945C213.664 188.643 213.562 188.284 213.562 187.867C213.562 187.174 213.854 186.589 214.438 186.109C215.026 185.63 215.776 185.391 216.688 185.391C217.646 185.391 218.422 185.638 219.016 186.133C219.615 186.628 219.914 187.26 219.914 188.031H218.461C218.461 187.635 218.292 187.294 217.953 187.008C217.62 186.721 217.198 186.578 216.688 186.578C216.161 186.578 215.75 186.693 215.453 186.922C215.156 187.151 215.008 187.451 215.008 187.82C215.008 188.169 215.146 188.432 215.422 188.609C215.698 188.786 216.195 188.956 216.914 189.117C217.638 189.279 218.224 189.471 218.672 189.695C219.12 189.919 219.451 190.19 219.664 190.508C219.883 190.82 219.992 191.203 219.992 191.656C219.992 192.411 219.69 193.018 219.086 193.477C218.482 193.93 217.698 194.156 216.734 194.156C216.057 194.156 215.458 194.036 214.938 193.797C214.417 193.557 214.008 193.224 213.711 192.797C213.419 192.365 213.273 191.898 213.273 191.398H214.719C214.745 191.883 214.938 192.268 215.297 192.555C215.661 192.836 216.141 192.977 216.734 192.977C217.281 192.977 217.719 192.867 218.047 192.648C218.38 192.424 218.547 192.128 218.547 191.758ZM227.094 193.164C226.531 193.826 225.706 194.156 224.617 194.156C223.716 194.156 223.029 193.896 222.555 193.375C222.086 192.849 221.849 192.073 221.844 191.047V185.547H223.289V191.008C223.289 192.289 223.81 192.93 224.852 192.93C225.956 192.93 226.69 192.518 227.055 191.695V185.547H228.5V194H227.125L227.094 193.164ZM234.789 186.844C234.57 186.807 234.333 186.789 234.078 186.789C233.13 186.789 232.487 187.193 232.148 188V194H230.703V185.547H232.109L232.133 186.523C232.607 185.768 233.279 185.391 234.148 185.391C234.43 185.391 234.643 185.427 234.789 185.5V186.844ZM239.477 194.156C238.331 194.156 237.398 193.781 236.68 193.031C235.961 192.276 235.602 191.268 235.602 190.008V189.742C235.602 188.904 235.76 188.156 236.078 187.5C236.401 186.839 236.849 186.323 237.422 185.953C238 185.578 238.625 185.391 239.297 185.391C240.396 185.391 241.25 185.753 241.859 186.477C242.469 187.201 242.773 188.237 242.773 189.586V190.188H237.047C237.068 191.021 237.31 191.695 237.773 192.211C238.242 192.721 238.836 192.977 239.555 192.977C240.065 192.977 240.497 192.872 240.852 192.664C241.206 192.456 241.516 192.18 241.781 191.836L242.664 192.523C241.956 193.612 240.893 194.156 239.477 194.156ZM239.297 186.578C238.714 186.578 238.224 186.792 237.828 187.219C237.432 187.641 237.188 188.234 237.094 189H241.328V188.891C241.286 188.156 241.089 187.589 240.734 187.188C240.38 186.781 239.901 186.578 239.297 186.578ZM246.148 190.797C246.159 190.177 246.229 189.688 246.359 189.328C246.49 188.969 246.755 188.57 247.156 188.133L248.18 187.078C248.617 186.583 248.836 186.052 248.836 185.484C248.836 184.938 248.693 184.51 248.406 184.203C248.12 183.891 247.703 183.734 247.156 183.734C246.625 183.734 246.198 183.875 245.875 184.156C245.552 184.438 245.391 184.815 245.391 185.289H243.945C243.956 184.445 244.255 183.766 244.844 183.25C245.438 182.729 246.208 182.469 247.156 182.469C248.141 182.469 248.906 182.734 249.453 183.266C250.005 183.792 250.281 184.516 250.281 185.438C250.281 186.349 249.859 187.247 249.016 188.133L248.164 188.977C247.784 189.398 247.594 190.005 247.594 190.797H246.148ZM246.086 193.273C246.086 193.039 246.156 192.844 246.297 192.688C246.443 192.526 246.656 192.445 246.938 192.445C247.219 192.445 247.432 192.526 247.578 192.688C247.724 192.844 247.797 193.039 247.797 193.273C247.797 193.508 247.724 193.703 247.578 193.859C247.432 194.01 247.219 194.086 246.938 194.086C246.656 194.086 246.443 194.01 246.297 193.859C246.156 193.703 246.086 193.508 246.086 193.273Z" fill="#272140"/>
<path d="M320.227 202.039H315.828V200.219H320.227V202.039ZM332.875 196.18H331.242C331.482 196.555 331.638 196.99 331.711 197.484H333.281L332.867 199.031H331.703C331.583 199.807 331.273 200.424 330.773 200.883C330.273 201.341 329.555 201.661 328.617 201.844L332.031 205.891V206H329.445L325.664 201.57L325.656 200.195H327.508C328.471 200.195 329.076 199.807 329.32 199.031H325.469L325.875 197.484H329.273C329.018 196.854 328.458 196.534 327.594 196.523H325.469L325.93 194.625H333.281L332.875 196.18ZM336.664 199.312H337.867C338.44 199.312 338.865 199.169 339.141 198.883C339.417 198.596 339.555 198.216 339.555 197.742C339.555 197.284 339.417 196.927 339.141 196.672C338.87 196.417 338.495 196.289 338.016 196.289C337.583 196.289 337.221 196.409 336.93 196.648C336.638 196.883 336.492 197.19 336.492 197.57H334.234C334.234 196.977 334.393 196.445 334.711 195.977C335.034 195.503 335.482 195.133 336.055 194.867C336.633 194.602 337.268 194.469 337.961 194.469C339.164 194.469 340.107 194.758 340.789 195.336C341.471 195.909 341.812 196.701 341.812 197.711C341.812 198.232 341.654 198.711 341.336 199.148C341.018 199.586 340.602 199.922 340.086 200.156C340.727 200.385 341.203 200.729 341.516 201.188C341.833 201.646 341.992 202.188 341.992 202.812C341.992 203.823 341.622 204.633 340.883 205.242C340.148 205.852 339.174 206.156 337.961 206.156C336.826 206.156 335.896 205.857 335.172 205.258C334.453 204.659 334.094 203.867 334.094 202.883H336.352C336.352 203.31 336.51 203.659 336.828 203.93C337.151 204.201 337.547 204.336 338.016 204.336C338.552 204.336 338.971 204.195 339.273 203.914C339.581 203.628 339.734 203.25 339.734 202.781C339.734 201.646 339.109 201.078 337.859 201.078H336.664V199.312ZM351.211 201.297C351.211 202.87 350.885 204.073 350.234 204.906C349.583 205.74 348.63 206.156 347.375 206.156C346.135 206.156 345.188 205.747 344.531 204.93C343.875 204.112 343.539 202.94 343.523 201.414V199.32C343.523 197.732 343.852 196.526 344.508 195.703C345.169 194.88 346.12 194.469 347.359 194.469C348.599 194.469 349.547 194.878 350.203 195.695C350.859 196.508 351.195 197.677 351.211 199.203V201.297ZM348.953 199C348.953 198.057 348.823 197.372 348.562 196.945C348.307 196.513 347.906 196.297 347.359 196.297C346.828 196.297 346.435 196.503 346.18 196.914C345.93 197.32 345.797 197.958 345.781 198.828V201.594C345.781 202.521 345.906 203.211 346.156 203.664C346.411 204.112 346.818 204.336 347.375 204.336C347.927 204.336 348.326 204.12 348.57 203.688C348.815 203.255 348.943 202.594 348.953 201.703V199ZM352.953 204.891C352.953 204.531 353.073 204.24 353.312 204.016C353.557 203.792 353.862 203.68 354.227 203.68C354.596 203.68 354.901 203.792 355.141 204.016C355.385 204.24 355.508 204.531 355.508 204.891C355.508 205.245 355.388 205.534 355.148 205.758C354.909 205.977 354.602 206.086 354.227 206.086C353.857 206.086 353.552 205.977 353.312 205.758C353.073 205.534 352.953 205.245 352.953 204.891ZM365.055 201.297C365.055 202.87 364.729 204.073 364.078 204.906C363.427 205.74 362.474 206.156 361.219 206.156C359.979 206.156 359.031 205.747 358.375 204.93C357.719 204.112 357.383 202.94 357.367 201.414V199.32C357.367 197.732 357.695 196.526 358.352 195.703C359.013 194.88 359.964 194.469 361.203 194.469C362.443 194.469 363.391 194.878 364.047 195.695C364.703 196.508 365.039 197.677 365.055 199.203V201.297ZM362.797 199C362.797 198.057 362.667 197.372 362.406 196.945C362.151 196.513 361.75 196.297 361.203 196.297C360.672 196.297 360.279 196.503 360.023 196.914C359.773 197.32 359.641 197.958 359.625 198.828V201.594C359.625 202.521 359.75 203.211 360 203.664C360.255 204.112 360.661 204.336 361.219 204.336C361.771 204.336 362.169 204.12 362.414 203.688C362.659 203.255 362.786 202.594 362.797 201.703V199ZM374.242 201.297C374.242 202.87 373.917 204.073 373.266 204.906C372.615 205.74 371.661 206.156 370.406 206.156C369.167 206.156 368.219 205.747 367.562 204.93C366.906 204.112 366.57 202.94 366.555 201.414V199.32C366.555 197.732 366.883 196.526 367.539 195.703C368.201 194.88 369.151 194.469 370.391 194.469C371.63 194.469 372.578 194.878 373.234 195.695C373.891 196.508 374.227 197.677 374.242 199.203V201.297ZM371.984 199C371.984 198.057 371.854 197.372 371.594 196.945C371.339 196.513 370.938 196.297 370.391 196.297C369.859 196.297 369.466 196.503 369.211 196.914C368.961 197.32 368.828 197.958 368.812 198.828V201.594C368.812 202.521 368.938 203.211 369.188 203.664C369.443 204.112 369.849 204.336 370.406 204.336C370.958 204.336 371.357 204.12 371.602 203.688C371.846 203.255 371.974 202.594 371.984 201.703V199Z" fill="#4AAD9B"/>
<g filter="url(#filter1_d)">
<rect x="30" y="20" width="335" height="100" rx="10" fill="white"/>
</g>
<path fill-rule="evenodd" clip-rule="evenodd" d="M80 100C96.5685 100 110 86.5685 110 70C110 53.4315 96.5685 40 80 40C63.4315 40 50 53.4315 50 70C50 86.5685 63.4315 100 80 100Z" fill="#78B0ED" fill-opacity="0.25"/>
<path fill-rule="evenodd" clip-rule="evenodd" d="M74.2072 79.1084C74.2072 78.0695 75.0266 77.2273 76.0374 77.2273C77.0482 77.2273 77.8676 78.0695 77.8676 79.1084C77.8676 80.1472 77.0482 80.9894 76.0374 80.9894C75.0266 80.9894 74.2072 80.1472 74.2072 79.1084ZM76.0941 79.1084C76.0941 79.0761 76.0687 79.05 76.0374 79.05C76.006 79.05 75.9806 79.0761 75.9806 79.1084C75.9806 79.1406 76.006 79.1667 76.0374 79.1667C76.0687 79.1667 76.0941 79.1406 76.0941 79.1084Z" fill="#598EC7"/>
<path fill-rule="evenodd" clip-rule="evenodd" d="M86.6215 79.1084C86.6215 78.0695 87.4409 77.2273 88.4517 77.2273C89.4625 77.2273 90.2819 78.0695 90.2819 79.1084C90.2819 80.1472 89.4625 80.9894 88.4517 80.9894C87.4409 80.9894 86.6215 80.1472 86.6215 79.1084ZM88.5084 79.1084C88.5084 79.0761 88.483 79.05 88.4517 79.05C88.4203 79.05 88.3949 79.0761 88.3949 79.1084C88.3949 79.1406 88.4203 79.1667 88.4517 79.1667C88.483 79.1667 88.5084 79.1406 88.5084 79.1084Z" fill="#598EC7"/>
<path d="M72.4904 59C72.9414 59 73.3283 59.3278 73.4158 59.7805L73.4196 59.8012L75.9422 74.4933L89.3385 74.4933C89.8533 74.4933 90.2719 74.9172 90.2818 75.4439L90.2819 75.463C90.2819 75.9921 89.8695 76.4223 89.357 76.4325L89.3385 76.4327H75.1507C74.6997 76.4327 74.3128 76.1049 74.2253 75.6522L74.2215 75.6315L71.6988 60.9394H68.9435C68.4286 60.9394 68.0101 60.5155 68.0002 59.9888L68 59.9697C68 59.4405 68.4124 59.0104 68.9249 59.0002L68.9435 59H72.4904Z" fill="#598EC7"/>
<path d="M90.5704 61.7341C90.9861 61.7338 91.38 61.9252 91.6436 62.2555C91.9017 62.5788 92.0083 63.0019 91.9362 63.4124L91.9313 63.4391L90.3351 71.6416C90.2068 72.3006 89.6484 72.7769 88.9972 72.7871L88.9749 72.7872H75.1507C74.6296 72.7872 74.2072 72.3531 74.2072 71.8175C74.2072 71.2883 74.6196 70.8582 75.1321 70.848L75.1507 70.8478L88.5652 70.8478L89.9613 63.6735L73.3772 63.6735C72.8623 63.6735 72.4438 63.2497 72.4339 62.7229L72.4337 62.7038C72.4337 62.1747 72.8461 61.7445 73.3586 61.7343L73.3772 61.7341L90.5704 61.7341Z" fill="#598EC7"/>
<path d="M127.851 78.0469L131.104 86.168L134.358 78.0469H136.061V88H134.748V84.124L134.871 79.9404L131.604 88H130.599L127.338 79.9609L127.468 84.124V88H126.155V78.0469H127.851ZM142.746 88C142.673 87.8542 142.614 87.5944 142.568 87.2207C141.98 87.8314 141.279 88.1367 140.463 88.1367C139.734 88.1367 139.134 87.9316 138.665 87.5215C138.2 87.1068 137.968 86.5827 137.968 85.9492C137.968 85.179 138.259 84.582 138.843 84.1582C139.431 83.7298 140.256 83.5156 141.317 83.5156H142.548V82.9346C142.548 82.4925 142.416 82.1416 142.151 81.8818C141.887 81.6175 141.497 81.4854 140.982 81.4854C140.531 81.4854 140.153 81.5993 139.848 81.8271C139.542 82.055 139.39 82.3307 139.39 82.6543H138.118C138.118 82.2852 138.248 81.9297 138.508 81.5879C138.772 81.2415 139.128 80.9681 139.574 80.7676C140.025 80.5671 140.52 80.4668 141.058 80.4668C141.91 80.4668 142.577 80.681 143.061 81.1094C143.544 81.5332 143.794 82.1188 143.812 82.8662V86.2705C143.812 86.9495 143.899 87.4896 144.072 87.8906V88H142.746ZM140.647 87.0361C141.044 87.0361 141.42 86.9336 141.775 86.7285C142.131 86.5234 142.388 86.2568 142.548 85.9287V84.4111H141.557C140.007 84.4111 139.232 84.8646 139.232 85.7715C139.232 86.168 139.365 86.4779 139.629 86.7012C139.893 86.9245 140.233 87.0361 140.647 87.0361ZM149.37 81.7383C149.179 81.7064 148.971 81.6904 148.748 81.6904C147.919 81.6904 147.356 82.0436 147.06 82.75V88H145.795V80.6035H147.025L147.046 81.458C147.461 80.7972 148.049 80.4668 148.81 80.4668C149.056 80.4668 149.243 80.4987 149.37 80.5625V81.7383ZM153.369 87.1045C153.82 87.1045 154.215 86.9678 154.552 86.6943C154.889 86.4209 155.076 86.0791 155.112 85.6689H156.309C156.286 86.0928 156.14 86.4961 155.871 86.8789C155.602 87.2617 155.242 87.5671 154.791 87.7949C154.344 88.0228 153.87 88.1367 153.369 88.1367C152.362 88.1367 151.56 87.8018 150.963 87.1318C150.37 86.4574 150.074 85.5368 150.074 84.3701V84.1582C150.074 83.4382 150.206 82.7979 150.471 82.2373C150.735 81.6768 151.113 81.2415 151.605 80.9316C152.102 80.6217 152.688 80.4668 153.362 80.4668C154.192 80.4668 154.88 80.7152 155.427 81.2119C155.978 81.7087 156.272 82.3535 156.309 83.1465H155.112C155.076 82.668 154.894 82.276 154.565 81.9707C154.242 81.6608 153.841 81.5059 153.362 81.5059C152.72 81.5059 152.221 81.7383 151.865 82.2031C151.514 82.6634 151.339 83.3311 151.339 84.2061V84.4453C151.339 85.2975 151.514 85.9538 151.865 86.4141C152.216 86.8743 152.717 87.1045 153.369 87.1045ZM158.995 81.499C159.556 80.8109 160.285 80.4668 161.183 80.4668C162.746 80.4668 163.534 81.3486 163.548 83.1123V88H162.283V83.1055C162.279 82.5723 162.156 82.1781 161.914 81.9229C161.677 81.6676 161.306 81.54 160.8 81.54C160.39 81.54 160.03 81.6494 159.72 81.8682C159.41 82.0869 159.168 82.374 158.995 82.7295V88H157.73V77.5H158.995V81.499ZM172.94 88H171.669V79.5713L169.119 80.5078V79.3594L172.742 77.999H172.94V88ZM181.984 84.6572H183.365V85.6895H181.984V88H180.713V85.6895H176.181V84.9443L180.638 78.0469H181.984V84.6572ZM177.616 84.6572H180.713V79.7764L180.562 80.0498L177.616 84.6572ZM184.596 89.9824L183.878 89.4902C184.306 88.8932 184.53 88.278 184.548 87.6445V86.5029H185.785V87.4941C185.785 87.9544 185.671 88.4147 185.443 88.875C185.22 89.3353 184.938 89.7044 184.596 89.9824ZM197.249 88H190.728V87.0908L194.173 83.2627C194.683 82.6839 195.034 82.2145 195.226 81.8545C195.422 81.4899 195.52 81.1139 195.52 80.7266C195.52 80.207 195.362 79.7809 195.048 79.4482C194.733 79.1156 194.314 78.9492 193.79 78.9492C193.161 78.9492 192.671 79.1292 192.32 79.4893C191.974 79.8447 191.801 80.3415 191.801 80.9795H190.536C190.536 80.0635 190.83 79.3229 191.418 78.7578C192.01 78.1927 192.801 77.9102 193.79 77.9102C194.715 77.9102 195.447 78.154 195.984 78.6416C196.522 79.1247 196.791 79.7695 196.791 80.5762C196.791 81.556 196.167 82.7227 194.918 84.0762L192.252 86.9678H197.249V88ZM204.83 83.7549C204.83 85.236 204.577 86.3366 204.071 87.0566C203.565 87.7767 202.775 88.1367 201.699 88.1367C200.637 88.1367 199.851 87.7858 199.341 87.084C198.83 86.3776 198.566 85.3249 198.548 83.9258V82.2373C198.548 80.7744 198.801 79.6875 199.307 78.9766C199.812 78.2656 200.605 77.9102 201.686 77.9102C202.757 77.9102 203.545 78.2542 204.051 78.9424C204.557 79.626 204.816 80.6833 204.83 82.1143V83.7549ZM203.565 82.0254C203.565 80.9544 203.415 80.1751 203.114 79.6875C202.813 79.1953 202.337 78.9492 201.686 78.9492C201.038 78.9492 200.567 79.193 200.271 79.6807C199.974 80.1683 199.822 80.918 199.812 81.9297V83.9531C199.812 85.0286 199.967 85.8239 200.277 86.3389C200.592 86.8493 201.066 87.1045 201.699 87.1045C202.324 87.1045 202.786 86.863 203.087 86.3799C203.392 85.8968 203.552 85.1357 203.565 84.0967V82.0254ZM212.972 88H206.45V87.0908L209.896 83.2627C210.406 82.6839 210.757 82.2145 210.948 81.8545C211.144 81.4899 211.242 81.1139 211.242 80.7266C211.242 80.207 211.085 79.7809 210.771 79.4482C210.456 79.1156 210.037 78.9492 209.513 78.9492C208.884 78.9492 208.394 79.1292 208.043 79.4893C207.697 79.8447 207.523 80.3415 207.523 80.9795H206.259C206.259 80.0635 206.553 79.3229 207.141 78.7578C207.733 78.1927 208.524 77.9102 209.513 77.9102C210.438 77.9102 211.169 78.154 211.707 78.6416C212.245 79.1247 212.514 79.7695 212.514 80.5762C212.514 81.556 211.889 82.7227 210.641 84.0762L207.975 86.9678H212.972V88ZM218.468 88H217.196V79.5713L214.646 80.5078V79.3594L218.27 77.999H218.468V88Z" fill="#576E82"/>
<path d="M126.32 64V52.625H130.039C131.273 52.625 132.201 52.8802 132.82 53.3906C133.445 53.901 133.758 54.6562 133.758 55.6562C133.758 56.1875 133.607 56.6589 133.305 57.0703C133.003 57.4766 132.591 57.7917 132.07 58.0156C132.685 58.1875 133.169 58.5156 133.523 59C133.883 59.4792 134.062 60.0521 134.062 60.7188C134.062 61.7396 133.732 62.5417 133.07 63.125C132.409 63.7083 131.474 64 130.266 64H126.32ZM127.82 58.6797V62.7734H130.297C130.995 62.7734 131.544 62.5938 131.945 62.2344C132.352 61.8698 132.555 61.3698 132.555 60.7344C132.555 59.3646 131.81 58.6797 130.32 58.6797H127.82ZM127.82 57.4766H130.086C130.742 57.4766 131.266 57.3125 131.656 56.9844C132.052 56.6562 132.25 56.2109 132.25 55.6484C132.25 55.0234 132.068 54.5703 131.703 54.2891C131.339 54.0026 130.784 53.8594 130.039 53.8594H127.82V57.4766ZM139.57 64.1562C138.424 64.1562 137.492 63.7812 136.773 63.0312C136.055 62.276 135.695 61.2682 135.695 60.0078V59.7422C135.695 58.9036 135.854 58.1562 136.172 57.5C136.495 56.8385 136.943 56.3229 137.516 55.9531C138.094 55.5781 138.719 55.3906 139.391 55.3906C140.49 55.3906 141.344 55.7526 141.953 56.4766C142.562 57.2005 142.867 58.237 142.867 59.5859V60.1875H137.141C137.161 61.0208 137.404 61.6953 137.867 62.2109C138.336 62.7214 138.93 62.9766 139.648 62.9766C140.159 62.9766 140.591 62.8724 140.945 62.6641C141.299 62.4557 141.609 62.1797 141.875 61.8359L142.758 62.5234C142.049 63.612 140.987 64.1562 139.57 64.1562ZM139.391 56.5781C138.807 56.5781 138.318 56.7917 137.922 57.2188C137.526 57.6406 137.281 58.2344 137.188 59H141.422V58.8906C141.38 58.1562 141.182 57.5885 140.828 57.1875C140.474 56.7812 139.995 56.5781 139.391 56.5781ZM149.469 61.7578C149.469 61.3672 149.32 61.0651 149.023 60.8516C148.732 60.6328 148.219 60.4453 147.484 60.2891C146.755 60.1328 146.174 59.9453 145.742 59.7266C145.315 59.5078 144.997 59.2474 144.789 58.9453C144.586 58.6432 144.484 58.2839 144.484 57.8672C144.484 57.1745 144.776 56.5885 145.359 56.1094C145.948 55.6302 146.698 55.3906 147.609 55.3906C148.568 55.3906 149.344 55.638 149.938 56.1328C150.536 56.6276 150.836 57.2604 150.836 58.0312H149.383C149.383 57.6354 149.214 57.2943 148.875 57.0078C148.542 56.7214 148.12 56.5781 147.609 56.5781C147.083 56.5781 146.672 56.6927 146.375 56.9219C146.078 57.151 145.93 57.4505 145.93 57.8203C145.93 58.1693 146.068 58.4323 146.344 58.6094C146.62 58.7865 147.117 58.9557 147.836 59.1172C148.56 59.2786 149.146 59.4714 149.594 59.6953C150.042 59.9193 150.372 60.1901 150.586 60.5078C150.805 60.8203 150.914 61.2031 150.914 61.6562C150.914 62.4115 150.612 63.0182 150.008 63.4766C149.404 63.9297 148.62 64.1562 147.656 64.1562C146.979 64.1562 146.38 64.0365 145.859 63.7969C145.339 63.5573 144.93 63.224 144.633 62.7969C144.341 62.3646 144.195 61.8984 144.195 61.3984H145.641C145.667 61.8828 145.859 62.2682 146.219 62.5547C146.583 62.8359 147.062 62.9766 147.656 62.9766C148.203 62.9766 148.641 62.8672 148.969 62.6484C149.302 62.4245 149.469 62.1276 149.469 61.7578ZM154.758 53.5V55.5469H156.336V56.6641H154.758V61.9062C154.758 62.2448 154.828 62.5 154.969 62.6719C155.109 62.8385 155.349 62.9219 155.688 62.9219C155.854 62.9219 156.083 62.8906 156.375 62.8281V64C155.995 64.1042 155.625 64.1562 155.266 64.1562C154.62 64.1562 154.133 63.9609 153.805 63.5703C153.477 63.1797 153.312 62.625 153.312 61.9062V56.6641H151.773V55.5469H153.312V53.5H154.758ZM163.727 59.5469V64H162.227V52.625H166.422C167.667 52.625 168.641 52.9427 169.344 53.5781C170.052 54.2135 170.406 55.0547 170.406 56.1016C170.406 57.2057 170.06 58.0573 169.367 58.6562C168.68 59.25 167.693 59.5469 166.406 59.5469H163.727ZM163.727 58.3203H166.422C167.224 58.3203 167.839 58.1328 168.266 57.7578C168.693 57.3776 168.906 56.8307 168.906 56.1172C168.906 55.4401 168.693 54.8984 168.266 54.4922C167.839 54.0859 167.253 53.875 166.508 53.8594H163.727V58.3203ZM176.18 56.8438C175.961 56.8073 175.724 56.7891 175.469 56.7891C174.521 56.7891 173.878 57.1927 173.539 58V64H172.094V55.5469H173.5L173.523 56.5234C173.997 55.7682 174.669 55.3906 175.539 55.3906C175.82 55.3906 176.034 55.4271 176.18 55.5V56.8438ZM179.086 64H177.641V55.5469H179.086V64ZM177.523 53.3047C177.523 53.0703 177.594 52.8724 177.734 52.7109C177.88 52.5495 178.094 52.4688 178.375 52.4688C178.656 52.4688 178.87 52.5495 179.016 52.7109C179.161 52.8724 179.234 53.0703 179.234 53.3047C179.234 53.5391 179.161 53.7344 179.016 53.8906C178.87 54.0469 178.656 54.125 178.375 54.125C178.094 54.125 177.88 54.0469 177.734 53.8906C177.594 53.7344 177.523 53.5391 177.523 53.3047ZM184.797 62.9766C185.312 62.9766 185.763 62.8203 186.148 62.5078C186.534 62.1953 186.747 61.8047 186.789 61.3359H188.156C188.13 61.8203 187.964 62.2812 187.656 62.7188C187.349 63.1562 186.938 63.5052 186.422 63.7656C185.911 64.026 185.37 64.1562 184.797 64.1562C183.646 64.1562 182.729 63.7734 182.047 63.0078C181.37 62.237 181.031 61.1849 181.031 59.8516V59.6094C181.031 58.7865 181.182 58.0547 181.484 57.4141C181.786 56.7734 182.219 56.276 182.781 55.9219C183.349 55.5677 184.018 55.3906 184.789 55.3906C185.737 55.3906 186.523 55.6745 187.148 56.2422C187.779 56.8099 188.115 57.5469 188.156 58.4531H186.789C186.747 57.9062 186.539 57.4583 186.164 57.1094C185.794 56.7552 185.336 56.5781 184.789 56.5781C184.055 56.5781 183.484 56.8438 183.078 57.375C182.677 57.901 182.477 58.6641 182.477 59.6641V59.9375C182.477 60.9115 182.677 61.6615 183.078 62.1875C183.479 62.7135 184.052 62.9766 184.797 62.9766ZM193.289 64.1562C192.143 64.1562 191.211 63.7812 190.492 63.0312C189.773 62.276 189.414 61.2682 189.414 60.0078V59.7422C189.414 58.9036 189.573 58.1562 189.891 57.5C190.214 56.8385 190.661 56.3229 191.234 55.9531C191.812 55.5781 192.438 55.3906 193.109 55.3906C194.208 55.3906 195.062 55.7526 195.672 56.4766C196.281 57.2005 196.586 58.237 196.586 59.5859V60.1875H190.859C190.88 61.0208 191.122 61.6953 191.586 62.2109C192.055 62.7214 192.648 62.9766 193.367 62.9766C193.878 62.9766 194.31 62.8724 194.664 62.6641C195.018 62.4557 195.328 62.1797 195.594 61.8359L196.477 62.5234C195.768 63.612 194.706 64.1562 193.289 64.1562ZM193.109 56.5781C192.526 56.5781 192.036 56.7917 191.641 57.2188C191.245 57.6406 191 58.2344 190.906 59H195.141V58.8906C195.099 58.1562 194.901 57.5885 194.547 57.1875C194.193 56.7812 193.714 56.5781 193.109 56.5781Z" fill="#272140"/>
<path d="M290.227 72.0391H285.828V70.2188H290.227V72.0391ZM302.875 66.1797H301.242C301.482 66.5547 301.638 66.9896 301.711 67.4844H303.281L302.867 69.0312H301.703C301.583 69.8073 301.273 70.4245 300.773 70.8828C300.273 71.3411 299.555 71.6615 298.617 71.8438L302.031 75.8906V76H299.445L295.664 71.5703L295.656 70.1953H297.508C298.471 70.1953 299.076 69.8073 299.32 69.0312H295.469L295.875 67.4844H299.273C299.018 66.8542 298.458 66.5339 297.594 66.5234H295.469L295.93 64.625H303.281L302.875 66.1797ZM311.047 71.7188H312.336V73.5391H311.047V76H308.789V73.5391H304.125L304.023 72.1172L308.766 64.625H311.047V71.7188ZM306.273 71.7188H308.789V67.7031L308.641 67.9609L306.273 71.7188ZM321.289 65.8906L316.891 76H314.508L318.914 66.4531H313.258V64.625H321.289V65.8906ZM322.953 74.8906C322.953 74.5312 323.073 74.2396 323.312 74.0156C323.557 73.7917 323.862 73.6797 324.227 73.6797C324.596 73.6797 324.901 73.7917 325.141 74.0156C325.385 74.2396 325.508 74.5312 325.508 74.8906C325.508 75.2448 325.388 75.5339 325.148 75.7578C324.909 75.9766 324.602 76.0859 324.227 76.0859C323.857 76.0859 323.552 75.9766 323.312 75.7578C323.073 75.5339 322.953 75.2448 322.953 74.8906ZM332.68 71.4531C332.091 72.0312 331.404 72.3203 330.617 72.3203C329.612 72.3203 328.807 71.9766 328.203 71.2891C327.599 70.5964 327.297 69.6641 327.297 68.4922C327.297 67.7474 327.458 67.0651 327.781 66.4453C328.109 65.8203 328.565 65.3359 329.148 64.9922C329.732 64.6432 330.388 64.4688 331.117 64.4688C331.867 64.4688 332.534 64.6562 333.117 65.0312C333.701 65.4062 334.154 65.9453 334.477 66.6484C334.799 67.3516 334.964 68.1562 334.969 69.0625V69.8984C334.969 71.7943 334.497 73.2839 333.555 74.3672C332.612 75.4505 331.276 76.0286 329.547 76.1016L328.992 76.1094V74.2266L329.492 74.2188C331.456 74.1302 332.518 73.2083 332.68 71.4531ZM331.172 70.5938C331.536 70.5938 331.849 70.5 332.109 70.3125C332.375 70.125 332.576 69.8984 332.711 69.6328V68.7031C332.711 67.9375 332.565 67.3438 332.273 66.9219C331.982 66.5 331.591 66.2891 331.102 66.2891C330.648 66.2891 330.276 66.4974 329.984 66.9141C329.693 67.3255 329.547 67.8438 329.547 68.4688C329.547 69.0885 329.688 69.599 329.969 70C330.255 70.3958 330.656 70.5938 331.172 70.5938ZM344.383 76H336.586V74.4531L340.266 70.5312C340.771 69.9792 341.143 69.4974 341.383 69.0859C341.628 68.6745 341.75 68.2839 341.75 67.9141C341.75 67.4089 341.622 67.013 341.367 66.7266C341.112 66.4349 340.747 66.2891 340.273 66.2891C339.763 66.2891 339.359 66.4661 339.062 66.8203C338.771 67.1693 338.625 67.6302 338.625 68.2031H336.359C336.359 67.5104 336.523 66.8776 336.852 66.3047C337.185 65.7318 337.654 65.2839 338.258 64.9609C338.862 64.6328 339.547 64.4688 340.312 64.4688C341.484 64.4688 342.393 64.75 343.039 65.3125C343.69 65.875 344.016 66.6693 344.016 67.6953C344.016 68.2578 343.87 68.8307 343.578 69.4141C343.286 69.9974 342.786 70.6771 342.078 71.4531L339.492 74.1797H344.383V76Z" fill="#4AAD9B"/>
<defs>
<filter id="filter0_d" x="30" y="130" width="395" height="160" filterUnits="userSpaceOnUse" color-interpolation-filters="sRGB">
<feFlood flood-opacity="0" result="BackgroundImageFix"/>
<feColorMatrix in="SourceAlpha" type="matrix" values="0 0 0 0 0 0 0 0 0 0 0 0 0 0 0 0 0 0 127 0" result="hardAlpha"/>
<feOffset dy="10"/>
<feGaussianBlur stdDeviation="15"/>
<feColorMatrix type="matrix" values="0 0 0 0 0 0 0 0 0 0 0 0 0 0 0 0 0 0 0.1 0"/>
<feBlend mode="normal" in2="BackgroundImageFix" result="effect1_dropShadow"/>
<feBlend mode="normal" in="SourceGraphic" in2="effect1_dropShadow" result="shape"/>
</filter>
<filter id="filter1_d" x="0" y="0" width="395" height="160" filterUnits="userSpaceOnUse" color-interpolation-filters="sRGB">
<feFlood flood-opacity="0" result="BackgroundImageFix"/>
<feColorMatrix in="SourceAlpha" type="matrix" values="0 0 0 0 0 0 0 0 0 0 0 0 0 0 0 0 0 0 127 0" result="hardAlpha"/>
<feOffset dy="10"/>
<feGaussianBlur stdDeviation="15"/>
<feColorMatrix type="matrix" values="0 0 0 0 0 0 0 0 0 0 0 0 0 0 0 0 0 0 0.1 0"/>
<feBlend mode="normal" in2="BackgroundImageFix" result="effect1_dropShadow"/>
<feBlend mode="normal" in="SourceGraphic" in2="effect1_dropShadow" result="shape"/>
</filter>
</defs>
</svg>
