<svg width="170" height="262" viewBox="0 0 170 262" fill="none" xmlns="http://www.w3.org/2000/svg">
<path fill-rule="evenodd" clip-rule="evenodd" d="M105.637 253.865H165.098C167.235 253.865 168.968 252.131 168.968 249.994V195.674C168.968 193.536 167.235 191.803 165.098 191.803H105.637C103.499 191.803 101.766 193.536 101.766 195.674V249.994C101.766 252.131 103.499 253.865 105.637 253.865Z" stroke="#D4DFF9" stroke-width="2"/>
<path fill-rule="evenodd" clip-rule="evenodd" d="M130.365 204.017H140.368C141.153 204.017 141.789 203.382 141.789 202.597V201.476C141.789 200.692 141.153 200.056 140.368 200.056H130.365C129.581 200.056 128.945 200.692 128.945 201.476V202.597C128.945 203.382 129.581 204.017 130.365 204.017Z" fill="#BBD1F5"/>
<path fill-rule="evenodd" clip-rule="evenodd" d="M37.1657 259.967C37.1841 260.209 37.2428 260.455 37.3456 260.698H63.9383C63.9493 260.698 63.9603 260.69 63.964 260.679C64.0741 260.434 64.1843 260.224 64.2944 260.048C64.9957 258.92 65.6712 259.144 66.1559 259.614C66.3541 259.805 66.523 260.04 66.6479 260.242C66.8204 260.525 67.1215 260.698 67.4519 260.698H69.9449C70.334 260.698 70.6865 260.463 70.8223 260.103C72.0046 256.897 71.5934 250.909 71.3878 248.694C71.3437 248.213 70.9362 247.846 70.4515 247.846H60.2521C60.0355 247.846 59.8262 247.923 59.661 248.059C58.4163 249.073 57.157 249.98 55.8977 250.795C55.7912 250.865 55.6811 250.934 55.5746 251C54.8366 251.47 54.1023 251.904 53.3754 252.308C53.2616 252.374 53.1477 252.436 53.0339 252.495C47.2073 255.682 41.8101 256.982 39.0565 257.477C38.5058 257.577 38.0285 257.87 37.6907 258.274C37.3089 258.726 37.107 259.332 37.1657 259.967Z" fill="#B6BADC"/>
<path fill-rule="evenodd" clip-rule="evenodd" d="M55.5744 251L58.6915 253.857L58.9412 253.585L55.8975 250.795C55.791 250.865 55.6809 250.934 55.5744 251Z" fill="#E6ECFF"/>
<path fill-rule="evenodd" clip-rule="evenodd" d="M53.0336 252.495L56.1214 255.326L56.371 255.054L53.3751 252.308C53.2613 252.374 53.1475 252.436 53.0336 252.495Z" fill="#E6ECFF"/>
<path fill-rule="evenodd" clip-rule="evenodd" d="M69.0967 258.862L66.1559 259.615C66.3541 259.805 66.523 260.04 66.6479 260.242C66.8204 260.525 67.1215 260.698 67.4519 260.698H69.9449C70.334 260.698 70.6865 260.463 70.8223 260.103C72.0046 256.897 71.5934 250.909 71.3878 248.695C71.3437 248.214 70.9362 247.846 70.4515 247.846H69.0967C69.0967 247.846 71.6668 251.518 69.0967 258.862Z" fill="#8E9AB8"/>
<path fill-rule="evenodd" clip-rule="evenodd" d="M64.7019 261.065C64.7203 261.307 64.779 261.553 64.8818 261.799H91.4745C91.4855 261.799 91.4965 261.792 91.5002 261.781C91.647 261.458 91.7902 261.197 91.9334 260.992C92.7118 259.883 93.4461 260.378 93.916 260.962C94.0188 261.091 94.1069 261.223 94.184 261.344C94.3566 261.627 94.6577 261.799 94.9881 261.799H97.4811C97.8702 261.799 98.2227 261.564 98.3585 261.204C99.5408 257.999 99.1296 252.01 98.924 249.796C98.8799 249.315 98.4724 248.948 97.9877 248.948H87.7883C87.5717 248.948 87.3624 249.025 87.1972 249.161C85.9525 250.174 84.6932 251.081 83.4339 251.896C83.3274 251.966 83.2173 252.036 83.1108 252.102C82.3728 252.572 81.6385 253.005 80.9116 253.409C80.7978 253.475 80.6839 253.538 80.5701 253.596C74.7435 256.784 69.3463 258.083 66.5927 258.579C66.042 258.678 65.5647 258.972 65.2269 259.376C64.8451 259.828 64.6432 260.43 64.7019 261.065Z" fill="#B6BADC"/>
<path fill-rule="evenodd" clip-rule="evenodd" d="M83.1106 252.102L86.2277 254.959L86.4774 254.687L83.4337 251.896C83.3272 251.966 83.2171 252.036 83.1106 252.102Z" fill="#E6ECFF"/>
<path fill-rule="evenodd" clip-rule="evenodd" d="M80.5701 253.597L83.6578 256.428L83.9075 256.156L80.9115 253.409C80.7977 253.475 80.6839 253.538 80.5701 253.597Z" fill="#E6ECFF"/>
<path fill-rule="evenodd" clip-rule="evenodd" d="M93.916 260.962C94.0188 261.091 94.1069 261.223 94.184 261.344C94.3566 261.627 94.6577 261.799 94.9881 261.799H97.4811C97.8702 261.799 98.2227 261.564 98.3585 261.204C99.5408 257.999 99.1296 252.01 98.924 249.796C98.8799 249.315 98.4724 248.948 97.9877 248.948H95.8289C96.5595 249.903 97.6096 251.775 97.3672 254.456C97.0001 258.495 97.437 260.863 93.916 260.962Z" fill="#8E9AB8"/>
<path fill-rule="evenodd" clip-rule="evenodd" d="M40.0919 99.1385L48.9035 107.216L50.8531 102.726L55.8793 91.1413L57.3479 87.7559L72.7682 75.2718L56.2465 74.6109L53.9261 74.5191L53.111 74.4861L45.232 74.1703L45.1586 76.4835L45.0704 79.1786L45.0411 80.0709L44.8648 85.5529L42.93 91.0606L42.236 93.0323L40.0919 99.1385Z" fill="#F0B2A2"/>
<path fill-rule="evenodd" clip-rule="evenodd" d="M55.5121 185.426L58.4808 248.761L69.4061 248.309L69.4289 248.305L71.6725 248.214C71.6799 248.166 71.6836 248.118 71.6913 248.074C78.7002 197.84 76.5883 185.936 76.5883 185.936L76.6258 185.602L78.8129 155.684L79.1888 161.559L79.9481 185.36L87.0811 249.315H99.1075C105.301 213.115 100.596 184.427 100.596 184.427C100.423 176.724 101.085 158.794 101.791 142.818V142.811C102.212 133.297 102.648 124.481 102.929 118.926C102.941 118.687 102.952 118.456 102.964 118.232C103.136 114.909 103.242 112.926 103.242 112.926L98.9085 112.757L62.2056 111.336L58.9434 111.211C58.9394 111.215 58.9394 111.211 58.9394 111.211L56.8837 111.131L56.8199 114.56L56.7596 117.788L56.7523 118.232L55.5121 185.426Z" fill="#D2D9F1"/>
<path fill-rule="evenodd" clip-rule="evenodd" d="M101.824 142.811C102.236 133.297 102.661 124.481 102.937 118.926C102.948 118.687 102.959 118.456 102.97 118.232H76.8067C76.8067 118.232 102.603 120.409 101.824 142.811Z" fill="#A7AEC6"/>
<path fill-rule="evenodd" clip-rule="evenodd" d="M41.3364 77.3575L44.6407 78.9695L45.0703 79.1787L46.9501 80.0967L55.8792 84.4514V116.51C55.8792 117.086 56.2317 117.582 56.731 117.788C56.8852 117.854 57.0541 117.894 57.234 117.898L71.7144 118.232L76.6562 118.346L89.0622 118.632L90.2408 118.658L101.835 118.926L102.606 118.944C103.161 118.955 103.623 118.518 103.642 117.964L104.126 103.269L104.508 91.6408L104.574 89.625L104.585 89.2468L104.71 85.553L116.852 81.995H116.855L118.941 81.3855C119.396 81.2533 119.657 80.7797 119.525 80.3243L109.736 46.911C109.34 45.5561 108.422 44.4141 107.185 43.7349L88.3059 33.351L87.1127 32.6938L87.0833 32.6791L70.8149 33.1674L70.679 33.2445C70.6753 33.2445 70.6753 33.2482 70.6753 33.2482L50.0158 45.2513C49.3035 45.6662 48.7859 46.3455 48.5803 47.1423L41.1601 75.819L40.9692 76.5571C40.8848 76.8765 41.039 77.2107 41.3364 77.3575Z" fill="#3B5BA2"/>
<path fill-rule="evenodd" clip-rule="evenodd" d="M90.1454 118.383C90.1454 118.39 90.1491 118.394 90.1491 118.401C90.1601 118.493 90.1895 118.581 90.2409 118.658L102.606 118.944C103.161 118.955 103.623 118.518 103.642 117.964L104.574 89.625L103.976 86.2873L99.203 87.3889C99.203 87.3889 94.2979 64.7118 93.4534 60.8087C95.4507 70.2159 96.4714 80.0049 97.4957 89.5516C97.8629 92.9627 98.1823 96.3774 98.4503 99.7996C98.8726 105.193 100.723 113.227 94.3676 115.996C93.4865 116.378 90.0389 117.057 90.1454 118.383Z" fill="#2D09AE"/>
<path fill-rule="evenodd" clip-rule="evenodd" d="M70.6569 33.8723C71.773 34.9334 74.7947 37.4523 78.2753 37.4523C83.5108 37.4523 87.1933 34.6103 88.2471 33.696C88.4013 33.5638 88.3645 33.3178 88.1846 33.2297L84.884 31.5774L84.7261 27.979L84.6637 26.5617L84.649 26.2129L84.6159 25.4125L84.5939 24.8727L84.5756 24.4982L84.5682 24.3256L84.5168 23.1323H76.0724V23.1653L75.8704 27.5678L75.775 29.6828L75.7125 31.0633L75.7052 31.2102L75.5547 31.269L70.7927 33.1746C70.5064 33.2885 70.4329 33.6593 70.6569 33.8723Z" fill="#F0B2A2"/>
<path fill-rule="evenodd" clip-rule="evenodd" d="M75.7126 31.0634C79.6779 31.2947 83.0667 28.1296 84.6491 26.213C84.6527 26.2056 84.6601 26.2019 84.6638 26.1946C84.7041 26.1469 84.7445 26.0991 84.7812 26.0514L84.884 25.7466C85.1521 25.4896 85.3944 25.2179 85.6183 24.9425L84.8326 24.6084L84.594 24.5056L84.5756 24.4982L81.8734 23.36L81.3374 23.1323H76.0724V23.1654L75.8705 27.5679L75.7751 29.6828L75.7126 31.0634Z" fill="#EF8584"/>
<path fill-rule="evenodd" clip-rule="evenodd" d="M91.476 16.06C91.476 16.06 95.1809 10.1935 90.6286 7.50577C90.1407 7.21754 89.8998 6.64584 90.0022 6.08809C90.398 3.93458 90.3173 -0.928716 81.1044 0.155566C73.5425 1.04524 69.7007 0.790053 67.9222 0.49484C67.1637 0.369265 66.4477 0.881481 66.3346 1.64154C65.6672 6.13913 64.3788 19.3492 72.1158 20.2091C80.1843 21.1058 87.7366 18.9019 89.6362 18.288C89.9306 18.1929 90.1818 18.002 90.3532 17.7442L91.476 16.06Z" fill="#0A173B"/>
<path fill-rule="evenodd" clip-rule="evenodd" d="M72.1772 25.377C72.8935 26.8769 73.9755 28.0868 75.5789 28.6596C76.2353 28.8982 76.9795 29.0256 77.8188 29.0256C81.2124 29.0256 83.5082 27.836 85.0557 26.3239C85.334 26.0574 85.5852 25.775 85.8157 25.4923C87.8527 22.9778 88.1908 20.0374 88.1908 20.0374C88.1908 20.0374 91.9945 21.0718 92.3404 16.926C92.5592 14.3039 90.9837 14.0293 89.7942 14.1806C89.0782 14.272 88.5371 14.8767 88.5371 15.6008V17.9603C88.5371 17.9603 87.1525 18.9987 86.8103 14.1567C86.4722 9.46963 79.3227 14.8411 71.9624 13.2931C71.5725 13.2097 71.1947 13.4723 71.143 13.8703C70.8801 15.8953 70.3631 21.5734 72.1772 25.377Z" fill="#F0B2A2"/>
<path fill-rule="evenodd" clip-rule="evenodd" d="M51.1063 114.56V118.232H74.971C75.9843 118.232 76.8068 117.409 76.8068 116.396V115.111C76.8068 114.806 76.5608 114.56 76.256 114.56H51.1063Z" fill="#AFB6F0"/>
<path fill-rule="evenodd" clip-rule="evenodd" d="M54.4106 117.13V118.232H74.971C75.9843 118.232 76.8068 117.409 76.8068 116.396V115.111C76.8068 114.806 76.5608 114.56 76.256 114.56H75.1436C75.1913 115.643 74.8719 117.13 72.7681 117.13H54.4106Z" fill="#A7AEC6"/>
<path fill-rule="evenodd" clip-rule="evenodd" d="M39.7245 92.5293L42.2358 93.0323L43.396 93.2636C43.396 93.2636 43.7852 92.4815 44.424 91.0605C44.6627 90.5355 44.9344 89.9186 45.2318 89.2246C45.9822 87.4724 47.9299 87.4277 49.0923 87.576C49.2212 87.5925 49.2748 87.4203 49.1625 87.355C45.4465 85.1934 46.95 80.0965 46.95 80.0965L45.0702 79.1786L45.0408 80.0708L44.8646 85.5528L42.9297 91.0605H40.2569L39.7245 92.5293Z" fill="#EF8584"/>
<path fill-rule="evenodd" clip-rule="evenodd" d="M58.3686 110.808L58.4016 110.841C59.1139 111.553 60.1493 111.832 61.1222 111.579L66.7433 110.114C67.5437 109.904 68.3954 110.026 69.104 110.451L70.356 111.204C71.1931 111.707 72.1991 111.847 73.1427 111.593L116.672 99.8987C119.007 99.2709 120.417 96.8989 119.855 94.5489L116.826 81.8812L101.039 86.6546L101.109 86.8345L102.507 90.3264L95.873 93.2051L95.5829 93.3299L72.6654 103.269C72.2542 103.449 71.7989 103.497 71.3583 103.409L67.7639 102.689C66.9782 102.535 66.1668 102.733 65.5427 103.233L58.4751 108.887C57.8729 109.368 57.8252 110.264 58.3686 110.808Z" fill="#F0B2A2"/>
<path fill-rule="evenodd" clip-rule="evenodd" d="M8.95016 118.195C9.02359 118.221 9.09702 118.232 9.17412 118.232H54.2932C55.0752 118.232 55.6333 117.468 55.391 116.723L54.6897 114.56L50.853 102.726L47.2439 91.6003C47.1631 91.3543 46.9722 91.1707 46.7372 91.101C41.3658 95.7421 27.7593 106.908 8.95016 118.195Z" fill="#494949"/>
<path fill-rule="evenodd" clip-rule="evenodd" d="M0.0394287 88.5475L8.43615 117.623C8.51692 117.902 8.71152 118.111 8.95016 118.19C9.02359 118.219 9.09702 118.232 9.17412 118.232H54.2932C55.0752 118.232 55.6333 117.365 55.391 116.519L54.6897 114.064L50.853 100.631L47.2439 88.0015C47.1631 87.7221 46.9722 87.5139 46.7372 87.4346C46.6638 87.4012 46.583 87.3887 46.5023 87.3887H0.781075C0.248707 87.3887 -0.125786 87.9765 0.0394287 88.5475Z" fill="#DAE1FF"/>
<path fill-rule="evenodd" clip-rule="evenodd" d="M21.1762 116.308L27.2416 120.802C29.4298 122.359 34.3165 122.469 36.4203 120.802L38.9904 118.232H35.3189C35.3189 118.213 35.3225 118.195 35.3262 118.18C35.3849 117.641 35.7741 113.003 31.2802 111.623C26.5073 110.154 25.0387 114.927 25.0387 114.927L23.4856 114.343C23.2213 114.244 22.9496 114.197 22.6816 114.197C22.0831 114.197 21.4957 114.432 21.0551 114.872C20.6439 115.283 20.6989 115.97 21.1762 116.308Z" fill="#F0B2A2"/>
<path fill-rule="evenodd" clip-rule="evenodd" d="M34.6422 120.316C34.6154 120.373 34.6635 120.433 34.7255 120.424C35.585 120.298 37.5816 119.166 38.7737 118.449L38.9904 118.232H35.3189C35.3189 118.84 34.8155 119.951 34.6422 120.316Z" fill="#EF8584"/>
<path fill-rule="evenodd" clip-rule="evenodd" d="M41.3364 77.3575L44.6408 78.9694L45.0704 79.1787L46.9502 80.0967L55.8792 84.4514V86.5553L56.2464 86.7757V60.2175C56.2464 60.2175 55.1449 70.8657 54.0435 74.1704C54.0068 74.2879 53.9664 74.4017 53.926 74.5192C53.2872 76.3624 52.4391 78.1249 50.7391 77.8422C49.2852 77.5998 46.2085 76.6598 45.1585 76.4836C43.2419 76.1642 41.9532 75.9512 41.1602 75.819L40.9693 76.557C40.8848 76.8765 41.039 77.2106 41.3364 77.3575Z" fill="#2D09AE"/>
<path fill-rule="evenodd" clip-rule="evenodd" d="M102.507 90.3262L95.8726 93.2049C99.9656 91.3947 105.519 91.579 107.574 91.7248C107.704 91.7336 107.745 91.5566 107.625 91.5041C103.848 89.8463 102.874 86.1954 102.874 86.1954L101.108 86.8343L102.507 90.3262Z" fill="#EF8584"/>
<path fill-rule="evenodd" clip-rule="evenodd" d="M55.8792 88.7351C56.0819 88.7351 56.2464 88.5706 56.2464 88.3679V58.0142C56.2464 57.8115 56.0819 57.647 55.8792 57.647C55.6766 57.647 55.5121 57.8115 55.5121 58.0142V88.3679C55.5121 88.5706 55.6766 88.7351 55.8792 88.7351Z" fill="#0A173B"/>
<path fill-rule="evenodd" clip-rule="evenodd" d="M99.3863 87.5724C99.4234 87.5724 99.4605 87.5669 99.4965 87.5555L103.595 86.2649C103.788 86.2043 103.896 85.9979 103.835 85.8048C103.774 85.6113 103.567 85.5041 103.374 85.5646L99.6591 86.7345L93.8706 60.3225C93.8269 60.1246 93.6305 59.9997 93.4334 60.0423C93.2355 60.086 93.1099 60.2817 93.1532 60.4796L99.0276 87.2838C99.0496 87.3844 99.1132 87.4714 99.2024 87.5228C99.2589 87.5559 99.3224 87.5724 99.3863 87.5724Z" fill="#0A173B"/>
<path fill-rule="evenodd" clip-rule="evenodd" d="M76.8066 185.426C76.8066 185.426 72.7679 149.436 77.1737 131.818L79.0095 156.419L76.8066 185.426Z" fill="#A7AEC6"/>
<path fill-rule="evenodd" clip-rule="evenodd" d="M78.6713 156.288C78.6853 156.288 78.6992 156.289 78.7132 156.288C78.9158 156.281 79.0715 156.122 79.0612 155.935L77.7406 131.667C77.7303 131.479 77.5577 131.334 77.3554 131.341C77.1531 131.348 76.9971 131.506 77.0074 131.694L78.328 155.962C78.3379 156.137 78.4877 156.275 78.6713 156.288Z" fill="#0A173B"/>
<path fill-rule="evenodd" clip-rule="evenodd" d="M64.7018 261.065C64.7202 261.307 64.7789 261.553 64.8817 261.799H91.4744C91.4854 261.799 91.4964 261.792 91.5001 261.781C91.647 261.458 91.7902 261.197 91.9333 260.991C85.4128 261.058 67.5289 261.065 64.7018 261.065Z" fill="#8E9AB8"/>
<path fill-rule="evenodd" clip-rule="evenodd" d="M37.1658 259.967C37.1841 260.209 37.2429 260.455 37.3457 260.698H63.9384C63.9494 260.698 63.9604 260.69 63.9641 260.679C64.0742 260.434 64.1843 260.224 64.2945 260.048L37.1658 259.967Z" fill="#8E9AB8"/>
</svg>
