<svg width="199" height="220" viewBox="0 0 199 220" fill="none" xmlns="http://www.w3.org/2000/svg">
<path d="M133.818 207.299V213.334C133.818 215.071 132.602 216.46 131.039 216.46H108.116C107.16 216.46 106.379 215.592 106.379 214.506C106.379 214.116 106.466 213.768 106.639 213.464C106.813 213.16 107.074 212.9 107.377 212.726L110.72 211.554L115.713 209.817L116.148 209.644L117.233 209.253L117.667 209.123L123.962 206.908L132.212 205.432C133.123 205.476 133.818 206.301 133.818 207.299Z" fill="#262438"/>
<path d="M131.517 29.1183C131.343 29.3354 131.387 29.6393 131.56 29.813C132.429 30.6813 133.123 31.5496 133.688 32.3311C133.862 32.5916 134.035 32.8087 134.209 33.0692C136.119 35.9781 136.336 38.1923 136.336 39.3212C136.336 39.6685 136.684 39.9724 137.031 39.8422C141.459 38.4094 146.583 35.3269 148.102 34.4151C148.363 34.2849 148.406 33.9375 148.276 33.677L143.717 25.6884L142.849 24.1688C142.805 24.1254 142.762 24.082 142.718 24.0386L139.723 21.5639L138.768 20.739C138.551 20.5653 138.203 20.5653 138.03 20.8258L131.517 29.1183Z" fill="#FBCACA"/>
<path d="M129.911 19.0022L130.779 33.3297C131.691 33.2862 132.646 32.9823 133.644 32.3311C133.818 32.5916 135.511 35.8478 135.685 36.0649C138.507 34.8926 141.025 29.6827 143.63 25.6884L142.718 24.082L139.679 21.5638C140.548 20.4784 141.416 18.6549 140.157 16.3538C140.07 16.1802 139.983 16.0499 139.896 15.9197C135.381 16.5275 129.911 19.0022 129.911 19.0022Z" fill="#EFBBBB"/>
<path d="M118.492 158.412L120.663 204.738C120.75 206.17 121.922 207.299 123.355 207.299H133.123C134.556 207.299 135.728 206.17 135.815 204.738L138.464 154.114L140.721 139.743L118.536 145.301V158.412H118.492Z" fill="#E2E2E2"/>
<path d="M137.726 22.6927L143.804 27.5119C144.412 27.9895 145.323 27.5553 145.28 26.7738C145.237 23.9517 145.497 18.6984 147.321 15.0514C150.924 7.97451 144.846 4.63144 142.241 3.63287C141.633 3.37237 141.069 2.98162 140.678 2.46062C139.506 0.897634 135.859 -2.05468 126.785 2.20013C118.492 6.06419 112.848 4.97878 110.243 4.02361C109.461 3.7197 108.637 4.37095 108.723 5.19586C109.201 8.88625 111.372 16.4841 121.748 17.1354C135.555 17.9603 137.726 22.6927 137.726 22.6927Z" fill="#01013A"/>
<path d="M139.766 24.2991C139.896 24.7767 139.81 25.2977 139.549 25.7318C137.422 29.1617 135.468 31.2891 133.688 32.4179C132.689 33.0692 131.734 33.3731 130.822 33.4165C129.476 33.4599 128.261 32.9389 127.175 32.0272C126.611 31.5496 126.09 30.9852 125.612 30.3774C122.704 26.6002 120.88 20.3048 120.055 17.0051C120.055 16.9183 120.012 16.8315 120.012 16.788C119.795 15.9197 120.533 15.1382 121.401 15.2685C125.786 15.8763 130.215 13.7489 132.081 12.6635C132.602 12.3596 133.297 12.4898 133.688 12.9674L136.51 16.6144C136.51 16.6144 138.073 13.0542 139.94 16.0066C140.027 16.1368 140.113 16.267 140.2 16.4407C141.416 18.7418 140.548 20.5653 139.679 21.6507C139.158 22.3019 138.681 22.6927 138.681 22.6927L139.419 23.6913C139.592 23.7781 139.679 24.0386 139.766 24.2991Z" fill="#FBCACA"/>
<path d="M47.9404 97.7596H75.9005V97.2387C75.9005 95.5888 74.5546 94.2429 72.9048 94.2429H47.897V97.7596H47.9404Z" fill="#047ABC"/>
<path d="M47.8536 98.2372L50.502 97.2386L37.2166 62.0279C37.1297 61.8108 36.8692 61.6806 36.6522 61.7674C35.4365 62.245 34.7852 63.5909 35.2628 64.85L47.8536 98.2372Z" fill="#047ABC"/>
<path d="M110.764 209.21V215.244C110.764 215.679 110.677 216.069 110.547 216.46C110.113 217.589 109.158 218.37 108.029 218.37H85.1048C84.1497 218.37 83.3682 217.502 83.3682 216.417C83.3682 216.026 83.455 215.679 83.6287 215.375C83.8023 215.071 84.0628 214.81 84.3667 214.637L92.529 211.771L92.9632 211.641L94.0486 211.25L94.4828 211.12L100.995 208.819L109.244 207.343C110.069 207.386 110.764 208.211 110.764 209.21Z" fill="#363249"/>
<path d="M166.901 152.421L179.058 184.332L179.449 185.33L192.083 218.587L192.951 218.197L180.447 185.33L180.057 184.332L167.77 152.073L166.901 152.421Z" fill="#E59055"/>
<path d="M140.678 219.326L141.59 219.673L154.658 185.33L155.005 184.332L166.771 153.55L165.859 153.159L154.007 184.332L153.616 185.33L140.678 219.326Z" fill="#E59055"/>
<path d="M153.616 185.33H180.447L180.057 184.332H154.007L153.616 185.33Z" fill="#E59055"/>
<path d="M74.3376 93.1575C74.3376 93.1575 73.9902 94.677 58.8813 94.2429C58.8813 94.2429 58.1433 88.2514 61.9205 87.3397C61.9205 87.3397 63.744 83.6493 67.608 85.2123C71.4287 86.7753 71.4287 86.7753 71.4287 86.7753L74.3376 86.2543V93.1575Z" fill="#FBCACA"/>
<path d="M178.016 143.173L170.375 145.301L147.017 151.77L131.3 150.207C127.783 149.859 124.57 152.247 123.876 155.721L114.02 206.474C113.716 208.124 112.24 209.34 110.59 209.34H100.17C98.0864 209.34 96.48 207.56 96.697 205.519L102.471 141.61C103.036 135.489 107.247 130.322 113.152 128.585L148.493 118.122L163.168 130.582L174.369 140.091L178.016 143.173Z" fill="white"/>
<g opacity="0.32">
<path d="M104.512 205.649C104.382 205.649 104.295 205.519 104.295 205.389L112.674 148.817C113.499 143.13 117.407 138.397 122.79 136.4L143.674 128.802C143.804 128.759 143.891 128.802 143.934 128.933C143.978 129.063 143.934 129.15 143.804 129.193L122.921 136.791C117.667 138.701 113.89 143.303 113.109 148.861L104.729 205.432C104.729 205.563 104.642 205.649 104.512 205.649Z" fill="#000021"/>
</g>
<path d="M1.00732 218.11L86.364 99.5831L85.4956 98.7582L0.138993 217.285C-0.0780891 217.545 -0.0346728 217.98 0.225826 218.197C0.486324 218.414 0.833655 218.37 1.00732 218.11Z" fill="#E59055"/>
<path opacity="0.58" d="M178.016 135.315L174.369 140.091L170.375 145.301L147.017 151.77L131.3 150.207C127.783 149.859 124.57 152.247 123.876 155.721L114.02 206.474C113.716 208.124 112.24 209.34 110.59 209.34H107.985C110.2 198.008 120.012 148.123 122.486 143.173C124.527 139.135 149.491 133.405 163.168 130.582C168.421 129.497 171.981 128.802 171.981 128.802L178.016 135.315Z" fill="#F2F2F4"/>
<path d="M112.197 218.11L26.84 99.5831L27.7084 98.7582L113.065 217.285C113.282 217.545 113.239 217.98 112.978 218.197C112.761 218.414 112.414 218.37 112.197 218.11Z" fill="#E59055"/>
<g opacity="0.32">
<rect x="128.005" y="203.813" width="48.4962" height="0.434164" transform="rotate(-88.3778 128.005 203.813)" fill="#000021"/>
</g>
<path d="M189.608 108.049C189.695 114.996 186.699 131.668 186.178 134.403C186.135 134.664 185.961 134.837 185.744 134.968L168.074 143.13C167.813 143.26 167.509 143.217 167.292 143.043C164.991 141.306 152.357 131.624 147.885 126.414C146.279 124.504 144.368 122.681 142.545 119.902C138.985 114.562 135.468 105.618 134.122 85.7767C134.079 85.1255 134.035 84.4743 133.992 83.7796C133.948 83.2586 133.427 82.9547 132.993 83.0849C132.906 83.1283 132.82 83.1718 132.689 83.2586L128.825 87.0792L128.608 87.3397L122.4 93.5483C120.837 95.1113 118.666 95.9796 116.452 95.8928L105.076 95.4586L75.5967 94.3298C74.2943 94.2864 73.2523 93.201 73.2523 91.8985V84.4308C73.2523 83.1718 74.2074 82.1298 75.4665 81.9995L105.901 79.0038C107.117 78.8735 108.289 78.3091 109.114 77.3974L133.384 50.4358C133.471 50.349 133.514 50.2187 133.558 50.0885L134.643 45.6166C134.643 45.5732 134.643 45.5297 134.686 45.4863L134.86 41.2315C134.86 40.971 134.99 40.7539 135.207 40.6237L147.668 33.1561C148.015 32.939 148.449 33.0258 148.667 33.3732L150.62 36.2386C150.707 36.3689 150.794 36.4123 150.924 36.4991C152.617 37.324 166.12 44.2273 170.896 55.1248C176.019 66.7604 189.521 100.495 189.608 108.049Z" fill="#57A794"/>
<path d="M5.78318 100.017H107.291C107.899 100.017 108.42 99.4963 108.42 98.8885C108.42 98.2806 107.899 97.7596 107.291 97.7596H5.78318C5.17535 97.7596 4.65436 98.2806 4.65436 98.8885C4.65436 99.4963 5.17535 100.017 5.78318 100.017Z" fill="#FBC886"/>
<path d="M198.639 113.476C197.076 134.099 188.653 155.243 168.421 162.45C136.814 173.695 129.824 159.281 128.304 152.508C127.957 150.901 129.173 149.425 130.822 149.512C132.429 149.599 134.035 149.599 135.555 149.599C137.465 149.599 139.332 149.512 141.112 149.338C197.076 145.083 190.78 85.2557 188.436 70.798C188.262 69.756 189.565 69.1916 190.216 70.0165C194.818 75.8778 198.248 88.0343 198.856 101.754C198.986 105.575 198.943 109.525 198.639 113.476Z" fill="#FBC886"/>
<path d="M126.611 31.5496C126.35 31.3325 126.09 31.072 125.829 30.7247C126.35 30.551 127.132 30.2037 127.61 29.4656C128.304 28.3802 127.87 30.5944 126.611 31.5496Z" fill="#8D8E8D"/>
<path d="M142.588 119.859C139.028 114.518 135.511 105.575 134.165 85.7333C134.122 85.0821 134.079 84.4308 134.035 83.7361C133.992 83.0849 133.21 82.781 132.733 83.2586L128.869 87.0792L142.458 66.7169C142.458 66.7169 154.441 112.261 142.588 119.859Z" fill="#418776"/>
<path d="M96.0892 213.204L95.7418 213.508L94.0052 211.25L94.4394 211.076L96.0892 213.204Z" fill="#BBB5E5"/>
<path d="M94.5262 213.681L94.1788 213.985L92.4856 211.771L92.9198 211.641L94.5262 213.681Z" fill="#BBB5E5"/>
<path d="M119.534 211.467L119.187 211.771L117.276 209.253L117.711 209.123L119.534 211.467Z" fill="#BBB5E5"/>
<path d="M117.971 211.945L117.624 212.249L115.757 209.817L116.191 209.644L117.971 211.945Z" fill="#BBB5E5"/>
<path d="M142.458 66.7169L136.814 78.7433L133.037 83.0849C132.95 83.1283 132.863 83.1717 132.733 83.2586L128.869 87.0792L128.652 87.3397L122.443 93.5483C120.88 95.1112 118.709 95.9796 116.495 95.8927L105.12 95.4586L75.6401 94.3297C74.3376 94.2863 73.2956 93.2009 73.2956 91.8984V89.5974L115.323 88.1212L142.458 66.7169Z" fill="#57A794"/>
<path opacity="0.49" d="M198.639 113.476C197.076 134.099 188.653 155.243 168.421 162.45C136.814 173.695 129.824 159.281 128.304 152.508C127.957 150.901 129.173 149.425 130.822 149.512C132.429 149.599 134.035 149.599 135.555 149.599C135.555 149.599 131.039 154.244 138.377 158.586C145.714 162.928 166.988 157.718 171.33 155.417C175.672 153.115 193.82 146.733 198.639 113.476Z" fill="#E59055"/>
</svg>
