<svg width="49" height="60" viewBox="0 0 49 60" fill="none" xmlns="http://www.w3.org/2000/svg">
<path fill-rule="evenodd" clip-rule="evenodd" d="M33.3435 0H9.48677C6.00153 0 3.16493 2.86735 3.16493 6.38592V29.9999H2.54746C1.1408 29.9999 0 31.1512 0 32.5733V48.1793C0 49.6013 1.14068 50.7525 2.54746 50.7525H3.16493V53.6141C3.16493 57.1365 6.00153 60 9.48677 60H42.0382C45.5212 60 48.3582 57.1364 48.3582 53.6141V15.1138L33.3435 0ZM6.68306 35.3897C7.42963 35.2622 8.47902 35.1662 9.95751 35.1662C11.4516 35.1662 12.5166 35.4543 13.2321 36.0329C13.9156 36.5782 14.3768 37.4784 14.3768 38.5376C14.3768 39.5967 14.0273 40.497 13.3914 41.1069C12.5642 41.8934 11.341 42.2465 9.91008 42.2465C9.59161 42.2465 9.30617 42.2306 9.08293 42.1993V46.0691H6.68306V35.3897ZM9.48677 56.0892H42.0382C43.3876 56.0892 44.4845 54.9791 44.4845 53.614L44.3932 16.663L36.2793 16.6865C33.8581 16.6865 31.895 14.7017 31.895 12.2579V3.89104L9.48677 3.91468C8.1374 3.91468 7.03836 5.02473 7.03836 6.38592V29.9999H37.383C38.7899 29.9999 39.9306 31.1512 39.9306 32.5733V48.1793C39.9306 49.6013 38.7899 50.7525 37.383 50.7525H7.03836V53.6141C7.03836 54.9791 8.13727 56.0892 9.48677 56.0892ZM15.9243 46.02V35.3897C16.8144 35.2466 17.9745 35.1662 19.1989 35.1662C21.2336 35.1662 22.553 35.5349 23.5869 36.3213C24.6995 37.1568 25.3984 38.4886 25.3984 40.4007C25.3984 42.4719 24.6518 43.9017 23.6178 44.7842C22.4897 45.7315 20.7725 46.1807 18.6745 46.1807C17.4182 46.1807 16.5281 46.1003 15.9243 46.02ZM33.2737 41.7169V39.7262H29.4263V37.2529H33.5435V35.2466H26.9944V46.0691H29.4263V41.7169H33.2737Z" fill="#77838F"/>
</svg>
