<svg width="14" height="14" viewBox="0 0 14 14" fill="none" xmlns="http://www.w3.org/2000/svg">
<path fill-rule="evenodd" clip-rule="evenodd" d="M13.9718 10.4817V12.5892C13.9734 12.9849 13.8082 13.3628 13.5167 13.6303C13.2251 13.8977 12.8344 14.0299 12.4403 13.9943C10.2786 13.7594 8.20202 13.0207 6.37757 11.8376C4.68016 10.7589 3.24105 9.31984 2.16245 7.62242C0.975171 5.78969 0.236305 3.70305 0.00570714 1.53157C-0.029789 1.13877 0.101441 0.749134 0.367341 0.457847C0.633241 0.166559 1.00932 0.000440487 1.40372 6.90711e-05H3.51129C4.21652 -0.00687195 4.81763 0.510077 4.91633 1.20841C5.00529 1.88287 5.17026 2.54511 5.4081 3.18249C5.6011 3.69595 5.47766 4.27477 5.09196 4.66481L4.19976 5.55701C5.19984 7.31581 6.65609 8.77206 8.41489 9.77214L9.30709 8.87994C9.69712 8.49424 10.276 8.3708 10.7894 8.5638C11.4268 8.80164 12.089 8.96661 12.7635 9.05557C13.4699 9.15523 13.9895 9.76848 13.9718 10.4817Z" fill="#28388F"/>
</svg>
