<svg width="50" height="10" viewBox="0 0 50 10" fill="none" xmlns="http://www.w3.org/2000/svg">
<path fill-rule="evenodd" clip-rule="evenodd" d="M5 10C7.76142 10 10 7.76142 10 5C10 2.23858 7.76142 0 5 0C2.23858 0 0 2.23858 0 5C0 7.76142 2.23858 10 5 10Z" fill="#233B58"/>
<path d="M29 5C29 7.20914 27.2091 9 25 9C22.7909 9 21 7.20914 21 5C21 2.79086 22.7909 1 25 1C27.2091 1 29 2.79086 29 5Z" stroke="#233B58" stroke-width="2"/>
<path d="M49 5C49 7.20914 47.2091 9 45 9C42.7909 9 41 7.20914 41 5C41 2.79086 42.7909 1 45 1C47.2091 1 49 2.79086 49 5Z" stroke="#233B58" stroke-width="2"/>
</svg>
