<svg width="604" height="381" viewBox="0 0 604 381" fill="none" xmlns="http://www.w3.org/2000/svg">
<g filter="url(#filter0_d)">
<rect x="64" y="32" width="475.569" height="252.623" rx="2" fill="#F7F7F7"/>
<mask id="mask0" mask-type="alpha" maskUnits="userSpaceOnUse" x="64" y="32" width="476" height="253">
<rect x="64" y="32" width="475.569" height="252.623" rx="2" fill="#383838"/>
</mask>
<g mask="url(#mask0)">
<path d="M-759.13 88.2783L-738.556 67.7042L529.562 1335.82L508.988 1356.4L-759.13 88.2783Z" fill="url(#paint0_linear)"/>
<path d="M-685.25 14.3981L-664.676 -6.17615L603.442 1261.94L582.868 1282.52L-685.25 14.3981Z" fill="url(#paint1_linear)"/>
<path d="M-611.37 -59.4819L-590.796 -80.0562L677.322 1188.06L656.748 1208.64L-611.37 -59.4819Z" fill="url(#paint2_linear)"/>
<path d="M-537.491 -133.362L-516.916 -153.936L751.202 1114.18L730.628 1134.76L-537.491 -133.362Z" fill="url(#paint3_linear)"/>
<path d="M-463.611 -207.242L-443.037 -227.816L825.082 1040.3L804.507 1060.88L-463.611 -207.242Z" fill="url(#paint4_linear)"/>
<path d="M-389.73 -281.122L-369.155 -301.696L898.963 966.422L878.389 986.996L-389.73 -281.122Z" fill="url(#paint5_linear)"/>
<path d="M-315.85 -355.002L-295.275 -375.576L972.843 892.542L952.269 913.116L-315.85 -355.002Z" fill="url(#paint6_linear)"/>
<path d="M-241.97 -428.882L-221.396 -449.456L1046.72 818.662L1026.15 839.236L-241.97 -428.882Z" fill="url(#paint7_linear)"/>
<path d="M-168.09 -502.762L-147.516 -523.336L1120.6 744.782L1100.03 765.356L-168.09 -502.762Z" fill="url(#paint8_linear)"/>
<path d="M-94.2099 -576.642L-73.6357 -597.216L1194.48 670.902L1173.91 691.476L-94.2099 -576.642Z" fill="url(#paint9_linear)"/>
<path d="M-20.3301 -650.522L0.244141 -671.097L1268.36 597.022L1247.79 617.596L-20.3301 -650.522Z" fill="url(#paint10_linear)"/>
<path d="M53.5499 -724.402L74.1241 -744.977L1342.24 523.142L1321.67 543.716L53.5499 -724.402Z" fill="url(#paint11_linear)"/>
<path d="M127.43 -798.282L148.004 -818.857L1416.12 449.262L1395.55 469.836L127.43 -798.282Z" fill="url(#paint12_linear)"/>
<path d="M201.31 -872.162L221.884 -892.737L1490 375.382L1469.43 395.956L201.31 -872.162Z" fill="url(#paint13_linear)"/>
<path d="M275.191 -946.042L295.765 -966.617L1563.88 301.502L1543.31 322.076L275.191 -946.042Z" fill="url(#paint14_linear)"/>
<path d="M349.071 -1019.92L369.645 -1040.5L1637.76 227.621L1617.19 248.196L349.071 -1019.92Z" fill="url(#paint15_linear)"/>
<path d="M275.657 1450.38L255.082 1429.81L1711.17 -26.2826L1731.75 -5.7085L275.657 1450.38Z" fill="url(#paint16_linear)"/>
<path d="M201.777 1376.5L181.203 1355.93L1637.29 -100.163L1657.87 -79.5886L201.777 1376.5Z" fill="url(#paint17_linear)"/>
<path d="M127.897 1302.62L107.323 1282.05L1563.41 -174.043L1583.99 -153.469L127.897 1302.62Z" fill="url(#paint18_linear)"/>
<path d="M54.0169 1228.74L33.4427 1208.17L1489.53 -247.923L1510.11 -227.349L54.0169 1228.74Z" fill="url(#paint19_linear)"/>
<path d="M-19.863 1154.86L-40.4372 1134.29L1415.65 -321.803L1436.23 -301.229L-19.863 1154.86Z" fill="url(#paint20_linear)"/>
<path d="M-93.7442 1080.98L-114.318 1060.41L1341.77 -395.683L1362.35 -375.109L-93.7442 1080.98Z" fill="url(#paint21_linear)"/>
<path d="M-167.624 1007.1L-188.198 986.529L1267.89 -469.563L1288.47 -448.989L-167.624 1007.1Z" fill="url(#paint22_linear)"/>
<path d="M-241.504 933.223L-262.078 912.648L1194.01 -543.443L1214.59 -522.869L-241.504 933.223Z" fill="url(#paint23_linear)"/>
<path d="M-315.384 859.343L-335.958 838.768L1120.13 -617.323L1140.71 -596.749L-315.384 859.343Z" fill="url(#paint24_linear)"/>
<path d="M-389.264 785.463L-409.838 764.888L1046.25 -691.203L1066.83 -670.629L-389.264 785.463Z" fill="url(#paint25_linear)"/>
<path d="M-463.144 711.583L-483.718 691.008L972.373 -765.083L992.948 -744.509L-463.144 711.583Z" fill="url(#paint26_linear)"/>
<path d="M-537.024 637.703L-557.598 617.128L898.493 -838.963L919.068 -818.389L-537.024 637.703Z" fill="url(#paint27_linear)"/>
<path d="M-610.904 563.823L-631.478 543.248L824.614 -912.843L845.188 -892.269L-610.904 563.823Z" fill="url(#paint28_linear)"/>
<path d="M-684.783 489.943L-705.358 469.368L750.734 -986.723L771.308 -966.149L-684.783 489.943Z" fill="url(#paint29_linear)"/>
<path d="M-758.665 416.062L-779.239 395.488L676.853 -1060.6L697.427 -1040.03L-758.665 416.062Z" fill="url(#paint30_linear)"/>
<path d="M-832.544 342.182L-853.119 321.608L602.973 -1134.48L623.547 -1113.91L-832.544 342.182Z" fill="url(#paint31_linear)"/>
<path d="M141.452 84.4791L77.5137 149.083C74.4357 152.193 74.4275 157.2 77.4954 160.32L215.026 300.193C218.154 303.374 223.28 303.382 226.418 300.21L286.946 239.021L437.144 84.4791" stroke="#CACACA" stroke-width="12" stroke-linecap="round"/>
<path d="M141.452 84.4791L77.5089 147.756C74.4236 150.809 74.3359 155.766 77.3113 158.926L141.814 227.439L214.262 301.564C217.403 304.778 222.573 304.775 225.711 301.558L362.045 161.75" stroke="#4AAD9B" stroke-width="12" stroke-linecap="round"/>
<circle cx="139.28" cy="81.9456" r="10.8577" fill="#4AAD9B"/>
<g filter="url(#filter1_d)">
<circle cx="361.14" cy="159.759" r="23.5251" fill="#4AAD9B"/>
</g>
<path d="M353.985 164.721H353.779C353.16 164.721 352.659 165.222 352.659 165.841C352.659 166.46 353.16 166.961 353.779 166.961H353.985C354.449 168.262 355.681 169.201 357.14 169.201C358.598 169.201 359.83 168.262 360.294 166.961H362.947C363.411 168.262 364.643 169.201 366.102 169.201C367.567 169.201 368.802 168.254 369.261 166.943C370.598 166.854 371.713 165.919 372.007 164.594L373.402 158.317C373.602 157.418 373.386 156.489 372.809 155.771C372.232 155.051 371.372 154.638 370.45 154.638H368.986C368.873 154.219 368.671 153.824 368.385 153.482C367.809 152.793 366.964 152.398 366.066 152.398H354.899C354.281 152.398 353.779 152.899 353.779 153.518C353.779 154.137 354.281 154.638 354.899 154.638H366.066C366.384 154.638 366.579 154.814 366.667 154.919C366.754 155.024 366.893 155.247 366.837 155.558L365.566 162.534C364.346 162.731 363.353 163.583 362.947 164.721H360.294C359.83 163.419 358.598 162.48 357.14 162.48C355.681 162.48 354.449 163.419 353.985 164.721ZM371.061 157.172C371.149 157.281 371.285 157.512 371.215 157.832L369.821 164.108C369.755 164.401 369.533 164.613 369.256 164.686C368.984 163.952 368.457 163.332 367.771 162.935L368.874 156.879H370.45C370.777 156.879 370.973 157.063 371.061 157.172ZM366.102 164.721C366.173 164.721 366.244 164.726 366.293 164.734C366.831 164.839 367.222 165.304 367.222 165.841C367.222 166.459 366.719 166.961 366.102 166.961C365.484 166.961 364.981 166.459 364.981 165.841C364.981 165.223 365.484 164.721 366.102 164.721ZM357.14 164.721C357.757 164.721 358.26 165.223 358.26 165.841C358.26 166.459 357.757 166.961 357.14 166.961C356.522 166.961 356.019 166.459 356.019 165.841C356.019 165.223 356.522 164.721 357.14 164.721Z" fill="white"/>
<path d="M352.658 159.119H357.139C357.758 159.119 358.26 158.618 358.26 157.999C358.26 157.38 357.758 156.879 357.139 156.879H352.658C352.04 156.879 351.538 157.38 351.538 157.999C351.538 158.618 352.04 159.119 352.658 159.119Z" fill="white"/>
<path d="M350.418 162.48H353.779C354.397 162.48 354.899 161.979 354.899 161.36C354.899 160.741 354.397 160.24 353.779 160.24H350.418C349.799 160.24 349.298 160.741 349.298 161.36C349.298 161.979 349.799 162.48 350.418 162.48Z" fill="white"/>
<path d="M351.538 154.638C352.157 154.638 352.658 154.137 352.658 153.518C352.658 152.899 352.157 152.398 351.538 152.398C350.919 152.398 350.418 152.899 350.418 153.518C350.418 154.137 350.919 154.638 351.538 154.638Z" fill="white"/>
<path d="M350.418 166.961C351.037 166.961 351.538 166.46 351.538 165.841C351.538 165.222 351.037 164.721 350.418 164.721C349.799 164.721 349.298 165.222 349.298 165.841C349.298 166.46 349.799 166.961 350.418 166.961Z" fill="white"/>
<g filter="url(#filter2_d)">
<rect x="412.895" y="65.2971" width="46.3264" height="46.3264" rx="23.1632" fill="#C4C4C4"/>
<rect x="410.395" y="62.7971" width="51.3264" height="51.3264" rx="25.6632" stroke="white" stroke-width="5"/>
</g>
</g>
<g filter="url(#filter3_d)">
<rect x="88.6108" y="229.611" width="36.1925" height="36.1925" rx="12" fill="#787878"/>
</g>
<g clip-path="url(#clip0)">
<path d="M114.67 245.487H113.222V242.218L107.731 247.707L113.222 253.198V249.927H114.67V255.669H108.927V254.222H112.196L106.707 248.73L101.217 254.222H104.487V255.669H98.7449V249.927H100.193V253.197L105.684 247.707L100.195 242.216V245.487H98.7473V239.745H104.487V241.192H101.219L106.707 246.683L112.198 241.195H108.927V239.747H114.67V245.487Z" fill="white"/>
</g>
<g filter="url(#filter4_d)">
<path d="M356.435 247.562C356.435 250.36 358.704 252.629 361.502 252.629H446.192C448.991 252.629 451.259 250.36 451.259 247.562V214.265C451.259 211.466 448.991 209.198 446.192 209.198H361.502C358.704 209.198 356.435 211.466 356.435 214.265V247.562Z" fill="white"/>
<path d="M366.569 209.27L373.735 216.436L380.9 209.27L373.735 202.105L366.569 209.27Z" fill="white"/>
</g>
<path d="M368.449 220.21V218.662H371.341V227.41H369.613V220.21H368.449ZM378.304 222.418V223.834H373.216V222.418H378.304ZM380.524 225.514C381.292 224.874 381.904 224.342 382.36 223.918C382.816 223.486 383.196 223.038 383.5 222.574C383.804 222.11 383.956 221.654 383.956 221.206C383.956 220.798 383.86 220.478 383.668 220.246C383.476 220.014 383.18 219.898 382.78 219.898C382.38 219.898 382.072 220.034 381.856 220.306C381.64 220.57 381.528 220.934 381.52 221.398H379.888C379.92 220.438 380.204 219.71 380.74 219.214C381.284 218.718 381.972 218.47 382.804 218.47C383.716 218.47 384.416 218.714 384.904 219.202C385.392 219.682 385.636 220.318 385.636 221.11C385.636 221.734 385.468 222.33 385.132 222.898C384.796 223.466 384.412 223.962 383.98 224.386C383.548 224.802 382.984 225.306 382.288 225.898H385.828V227.29H379.9V226.042L380.524 225.514ZM399.07 219.034V227.41H397.39V221.962L395.146 227.41H393.874L391.618 221.962V227.41H389.938V219.034H391.846L394.51 225.262L397.174 219.034H399.07ZM401.583 219.97C401.287 219.97 401.039 219.878 400.839 219.694C400.647 219.502 400.551 219.266 400.551 218.986C400.551 218.706 400.647 218.474 400.839 218.29C401.039 218.098 401.287 218.002 401.583 218.002C401.879 218.002 402.123 218.098 402.315 218.29C402.515 218.474 402.615 218.706 402.615 218.986C402.615 219.266 402.515 219.502 402.315 219.694C402.123 219.878 401.879 219.97 401.583 219.97ZM402.411 220.762V227.41H400.731V220.762H402.411ZM407.755 220.666C408.547 220.666 409.187 220.918 409.675 221.422C410.163 221.918 410.407 222.614 410.407 223.51V227.41H408.727V223.738C408.727 223.21 408.595 222.806 408.331 222.526C408.067 222.238 407.707 222.094 407.251 222.094C406.787 222.094 406.419 222.238 406.147 222.526C405.883 222.806 405.751 223.21 405.751 223.738V227.41H404.071V220.762H405.751V221.59C405.975 221.302 406.259 221.078 406.603 220.918C406.955 220.75 407.339 220.666 407.755 220.666Z" fill="black"/>
<path d="M368.964 239.055V241.385H371.504V242.135H368.964V244.535H371.804V245.285H368.054V238.305H371.804V239.055H368.964ZM375.121 245.375C374.701 245.375 374.325 245.305 373.991 245.165C373.658 245.018 373.395 244.818 373.201 244.565C373.008 244.305 372.901 244.008 372.881 243.675H373.821C373.848 243.948 373.975 244.171 374.201 244.345C374.435 244.518 374.738 244.605 375.111 244.605C375.458 244.605 375.731 244.528 375.931 244.375C376.131 244.221 376.231 244.028 376.231 243.795C376.231 243.555 376.125 243.378 375.911 243.265C375.698 243.145 375.368 243.028 374.921 242.915C374.515 242.808 374.181 242.701 373.921 242.595C373.668 242.481 373.448 242.318 373.261 242.105C373.081 241.885 372.991 241.598 372.991 241.245C372.991 240.965 373.075 240.708 373.241 240.475C373.408 240.241 373.645 240.058 373.951 239.925C374.258 239.785 374.608 239.715 375.001 239.715C375.608 239.715 376.098 239.868 376.471 240.175C376.845 240.481 377.045 240.901 377.071 241.435H376.161C376.141 241.148 376.025 240.918 375.811 240.745C375.605 240.571 375.325 240.485 374.971 240.485C374.645 240.485 374.385 240.555 374.191 240.695C373.998 240.835 373.901 241.018 373.901 241.245C373.901 241.425 373.958 241.575 374.071 241.695C374.191 241.808 374.338 241.901 374.511 241.975C374.691 242.041 374.938 242.118 375.251 242.205C375.645 242.311 375.965 242.418 376.211 242.525C376.458 242.625 376.668 242.778 376.841 242.985C377.021 243.191 377.115 243.461 377.121 243.795C377.121 244.095 377.038 244.365 376.871 244.605C376.705 244.845 376.468 245.035 376.161 245.175C375.861 245.308 375.515 245.375 375.121 245.375ZM379.516 240.555V243.785C379.516 244.051 379.573 244.241 379.686 244.355C379.799 244.461 379.996 244.515 380.276 244.515H380.946V245.285H380.126C379.619 245.285 379.239 245.168 378.986 244.935C378.733 244.701 378.606 244.318 378.606 243.785V240.555H377.896V239.805H378.606V238.425H379.516V239.805H380.946V240.555H379.516ZM382.519 238.915C382.345 238.915 382.199 238.855 382.079 238.735C381.959 238.615 381.899 238.468 381.899 238.295C381.899 238.121 381.959 237.975 382.079 237.855C382.199 237.735 382.345 237.675 382.519 237.675C382.685 237.675 382.825 237.735 382.939 237.855C383.059 237.975 383.119 238.121 383.119 238.295C383.119 238.468 383.059 238.615 382.939 238.735C382.825 238.855 382.685 238.915 382.519 238.915ZM382.959 239.805V245.285H382.049V239.805H382.959ZM391.1 239.705C391.526 239.705 391.906 239.795 392.24 239.975C392.573 240.148 392.836 240.411 393.03 240.765C393.223 241.118 393.32 241.548 393.32 242.055V245.285H392.42V242.185C392.42 241.638 392.283 241.221 392.01 240.935C391.743 240.641 391.38 240.495 390.92 240.495C390.446 240.495 390.07 240.648 389.79 240.955C389.51 241.255 389.37 241.691 389.37 242.265V245.285H388.47V242.185C388.47 241.638 388.333 241.221 388.06 240.935C387.793 240.641 387.43 240.495 386.97 240.495C386.496 240.495 386.12 240.648 385.84 240.955C385.56 241.255 385.42 241.691 385.42 242.265V245.285H384.51V239.805H385.42V240.595C385.6 240.308 385.84 240.088 386.14 239.935C386.446 239.781 386.783 239.705 387.15 239.705C387.61 239.705 388.016 239.808 388.37 240.015C388.723 240.221 388.986 240.525 389.16 240.925C389.313 240.538 389.566 240.238 389.92 240.025C390.273 239.811 390.666 239.705 391.1 239.705ZM394.472 242.525C394.472 241.965 394.586 241.475 394.812 241.055C395.039 240.628 395.349 240.298 395.742 240.065C396.142 239.831 396.586 239.715 397.072 239.715C397.552 239.715 397.969 239.818 398.322 240.025C398.676 240.231 398.939 240.491 399.112 240.805V239.805H400.032V245.285H399.112V244.265C398.932 244.585 398.662 244.851 398.302 245.065C397.949 245.271 397.536 245.375 397.062 245.375C396.576 245.375 396.136 245.255 395.742 245.015C395.349 244.775 395.039 244.438 394.812 244.005C394.586 243.571 394.472 243.078 394.472 242.525ZM399.112 242.535C399.112 242.121 399.029 241.761 398.862 241.455C398.696 241.148 398.469 240.915 398.182 240.755C397.902 240.588 397.592 240.505 397.252 240.505C396.912 240.505 396.602 240.585 396.322 240.745C396.042 240.905 395.819 241.138 395.652 241.445C395.486 241.751 395.402 242.111 395.402 242.525C395.402 242.945 395.486 243.311 395.652 243.625C395.819 243.931 396.042 244.168 396.322 244.335C396.602 244.495 396.912 244.575 397.252 244.575C397.592 244.575 397.902 244.495 398.182 244.335C398.469 244.168 398.696 243.931 398.862 243.625C399.029 243.311 399.112 242.948 399.112 242.535ZM402.68 240.555V243.785C402.68 244.051 402.737 244.241 402.85 244.355C402.963 244.461 403.16 244.515 403.44 244.515H404.11V245.285H403.29C402.783 245.285 402.403 245.168 402.15 244.935C401.897 244.701 401.77 244.318 401.77 243.785V240.555H401.06V239.805H401.77V238.425H402.68V239.805H404.11V240.555H402.68ZM410.213 242.335C410.213 242.508 410.203 242.691 410.183 242.885H405.803C405.836 243.425 406.019 243.848 406.353 244.155C406.693 244.455 407.103 244.605 407.583 244.605C407.976 244.605 408.303 244.515 408.563 244.335C408.829 244.148 409.016 243.901 409.123 243.595H410.103C409.956 244.121 409.663 244.551 409.223 244.885C408.783 245.211 408.236 245.375 407.583 245.375C407.063 245.375 406.596 245.258 406.183 245.025C405.776 244.791 405.456 244.461 405.223 244.035C404.989 243.601 404.873 243.101 404.873 242.535C404.873 241.968 404.986 241.471 405.213 241.045C405.439 240.618 405.756 240.291 406.163 240.065C406.576 239.831 407.049 239.715 407.583 239.715C408.103 239.715 408.563 239.828 408.963 240.055C409.363 240.281 409.669 240.595 409.883 240.995C410.103 241.388 410.213 241.835 410.213 242.335ZM409.273 242.145C409.273 241.798 409.196 241.501 409.043 241.255C408.889 241.001 408.679 240.811 408.413 240.685C408.153 240.551 407.863 240.485 407.543 240.485C407.083 240.485 406.689 240.631 406.363 240.925C406.043 241.218 405.859 241.625 405.813 242.145H409.273ZM411.074 242.525C411.074 241.965 411.187 241.475 411.414 241.055C411.64 240.628 411.95 240.298 412.344 240.065C412.744 239.831 413.19 239.715 413.684 239.715C414.11 239.715 414.507 239.815 414.874 240.015C415.24 240.208 415.52 240.465 415.714 240.785V237.885H416.634V245.285H415.714V244.255C415.534 244.581 415.267 244.851 414.914 245.065C414.56 245.271 414.147 245.375 413.674 245.375C413.187 245.375 412.744 245.255 412.344 245.015C411.95 244.775 411.64 244.438 411.414 244.005C411.187 243.571 411.074 243.078 411.074 242.525ZM415.714 242.535C415.714 242.121 415.63 241.761 415.464 241.455C415.297 241.148 415.07 240.915 414.784 240.755C414.504 240.588 414.194 240.505 413.854 240.505C413.514 240.505 413.204 240.585 412.924 240.745C412.644 240.905 412.42 241.138 412.254 241.445C412.087 241.751 412.004 242.111 412.004 242.525C412.004 242.945 412.087 243.311 412.254 243.625C412.42 243.931 412.644 244.168 412.924 244.335C413.204 244.495 413.514 244.575 413.854 244.575C414.194 244.575 414.504 244.495 414.784 244.335C415.07 244.168 415.297 243.931 415.464 243.625C415.63 243.311 415.714 242.948 415.714 242.535ZM421.948 240.555V243.785C421.948 244.051 422.004 244.241 422.118 244.355C422.231 244.461 422.428 244.515 422.708 244.515H423.378V245.285H422.558C422.051 245.285 421.671 245.168 421.418 244.935C421.164 244.701 421.038 244.318 421.038 243.785V240.555H420.328V239.805H421.038V238.425H421.948V239.805H423.378V240.555H421.948ZM424.95 238.915C424.777 238.915 424.63 238.855 424.51 238.735C424.39 238.615 424.33 238.468 424.33 238.295C424.33 238.121 424.39 237.975 424.51 237.855C424.63 237.735 424.777 237.675 424.95 237.675C425.117 237.675 425.257 237.735 425.37 237.855C425.49 237.975 425.55 238.121 425.55 238.295C425.55 238.468 425.49 238.615 425.37 238.735C425.257 238.855 425.117 238.915 424.95 238.915ZM425.39 239.805V245.285H424.48V239.805H425.39ZM433.531 239.705C433.958 239.705 434.338 239.795 434.671 239.975C435.004 240.148 435.268 240.411 435.461 240.765C435.654 241.118 435.751 241.548 435.751 242.055V245.285H434.851V242.185C434.851 241.638 434.714 241.221 434.441 240.935C434.174 240.641 433.811 240.495 433.351 240.495C432.878 240.495 432.501 240.648 432.221 240.955C431.941 241.255 431.801 241.691 431.801 242.265V245.285H430.901V242.185C430.901 241.638 430.764 241.221 430.491 240.935C430.224 240.641 429.861 240.495 429.401 240.495C428.928 240.495 428.551 240.648 428.271 240.955C427.991 241.255 427.851 241.691 427.851 242.265V245.285H426.941V239.805H427.851V240.595C428.031 240.308 428.271 240.088 428.571 239.935C428.878 239.781 429.214 239.705 429.581 239.705C430.041 239.705 430.448 239.808 430.801 240.015C431.154 240.221 431.418 240.525 431.591 240.925C431.744 240.538 431.998 240.238 432.351 240.025C432.704 239.811 433.098 239.705 433.531 239.705ZM442.244 242.335C442.244 242.508 442.234 242.691 442.214 242.885H437.834C437.867 243.425 438.051 243.848 438.384 244.155C438.724 244.455 439.134 244.605 439.614 244.605C440.007 244.605 440.334 244.515 440.594 244.335C440.861 244.148 441.047 243.901 441.154 243.595H442.134C441.987 244.121 441.694 244.551 441.254 244.885C440.814 245.211 440.267 245.375 439.614 245.375C439.094 245.375 438.627 245.258 438.214 245.025C437.807 244.791 437.487 244.461 437.254 244.035C437.021 243.601 436.904 243.101 436.904 242.535C436.904 241.968 437.017 241.471 437.244 241.045C437.471 240.618 437.787 240.291 438.194 240.065C438.607 239.831 439.081 239.715 439.614 239.715C440.134 239.715 440.594 239.828 440.994 240.055C441.394 240.281 441.701 240.595 441.914 240.995C442.134 241.388 442.244 241.835 442.244 242.335ZM441.304 242.145C441.304 241.798 441.227 241.501 441.074 241.255C440.921 241.001 440.711 240.811 440.444 240.685C440.184 240.551 439.894 240.485 439.574 240.485C439.114 240.485 438.721 240.631 438.394 240.925C438.074 241.218 437.891 241.625 437.844 242.145H441.304Z" fill="#969BA0"/>
</g>
<defs>
<filter id="filter0_d" x="0" y="0" width="603.569" height="380.623" filterUnits="userSpaceOnUse" color-interpolation-filters="sRGB">
<feFlood flood-opacity="0" result="BackgroundImageFix"/>
<feColorMatrix in="SourceAlpha" type="matrix" values="0 0 0 0 0 0 0 0 0 0 0 0 0 0 0 0 0 0 127 0" result="hardAlpha"/>
<feOffset dy="32"/>
<feGaussianBlur stdDeviation="32"/>
<feColorMatrix type="matrix" values="0 0 0 0 0 0 0 0 0 0 0 0 0 0 0 0 0 0 0.05 0"/>
<feBlend mode="normal" in2="BackgroundImageFix" result="effect1_dropShadow"/>
<feBlend mode="normal" in="SourceGraphic" in2="effect1_dropShadow" result="shape"/>
</filter>
<filter id="filter1_d" x="321.615" y="130.234" width="79.0502" height="79.0502" filterUnits="userSpaceOnUse" color-interpolation-filters="sRGB">
<feFlood flood-opacity="0" result="BackgroundImageFix"/>
<feColorMatrix in="SourceAlpha" type="matrix" values="0 0 0 0 0 0 0 0 0 0 0 0 0 0 0 0 0 0 127 0" result="hardAlpha"/>
<feOffset dy="10"/>
<feGaussianBlur stdDeviation="8"/>
<feColorMatrix type="matrix" values="0 0 0 0 0 0 0 0 0 0 0 0 0 0 0 0 0 0 0.22 0"/>
<feBlend mode="normal" in2="BackgroundImageFix" result="effect1_dropShadow"/>
<feBlend mode="normal" in="SourceGraphic" in2="effect1_dropShadow" result="shape"/>
</filter>
<filter id="filter2_d" x="392.895" y="49.2971" width="86.3264" height="86.3264" filterUnits="userSpaceOnUse" color-interpolation-filters="sRGB">
<feFlood flood-opacity="0" result="BackgroundImageFix"/>
<feColorMatrix in="SourceAlpha" type="matrix" values="0 0 0 0 0 0 0 0 0 0 0 0 0 0 0 0 0 0 127 0" result="hardAlpha"/>
<feOffset dy="4"/>
<feGaussianBlur stdDeviation="7.5"/>
<feColorMatrix type="matrix" values="0 0 0 0 0 0 0 0 0 0 0 0 0 0 0 0 0 0 0.25 0"/>
<feBlend mode="normal" in2="BackgroundImageFix" result="effect1_dropShadow"/>
<feBlend mode="normal" in="SourceGraphic" in2="effect1_dropShadow" result="shape"/>
</filter>
<filter id="filter3_d" x="74.6108" y="219.611" width="64.1925" height="64.1925" filterUnits="userSpaceOnUse" color-interpolation-filters="sRGB">
<feFlood flood-opacity="0" result="BackgroundImageFix"/>
<feColorMatrix in="SourceAlpha" type="matrix" values="0 0 0 0 0 0 0 0 0 0 0 0 0 0 0 0 0 0 127 0" result="hardAlpha"/>
<feOffset dy="4"/>
<feGaussianBlur stdDeviation="7"/>
<feColorMatrix type="matrix" values="0 0 0 0 0 0 0 0 0 0 0 0 0 0 0 0 0 0 0.25 0"/>
<feBlend mode="normal" in2="BackgroundImageFix" result="effect1_dropShadow"/>
<feBlend mode="normal" in="SourceGraphic" in2="effect1_dropShadow" result="shape"/>
</filter>
<filter id="filter4_d" x="346.435" y="196.105" width="114.824" height="70.5239" filterUnits="userSpaceOnUse" color-interpolation-filters="sRGB">
<feFlood flood-opacity="0" result="BackgroundImageFix"/>
<feColorMatrix in="SourceAlpha" type="matrix" values="0 0 0 0 0 0 0 0 0 0 0 0 0 0 0 0 0 0 127 0" result="hardAlpha"/>
<feOffset dy="4"/>
<feGaussianBlur stdDeviation="5"/>
<feColorMatrix type="matrix" values="0 0 0 0 0 0 0 0 0 0 0 0 0 0 0 0 0 0 0.22 0"/>
<feBlend mode="normal" in2="BackgroundImageFix" result="effect1_dropShadow"/>
<feBlend mode="normal" in="SourceGraphic" in2="effect1_dropShadow" result="shape"/>
</filter>
<linearGradient id="paint0_linear" x1="428.82" y1="250.602" x2="1078.84" y2="-34.2324" gradientUnits="userSpaceOnUse">
<stop stop-color="#EAEAEA"/>
<stop offset="1" stop-color="#EAEAEA" stop-opacity="0"/>
</linearGradient>
<linearGradient id="paint1_linear" x1="428.82" y1="250.602" x2="1078.84" y2="-34.2324" gradientUnits="userSpaceOnUse">
<stop stop-color="#EAEAEA"/>
<stop offset="1" stop-color="#EAEAEA" stop-opacity="0"/>
</linearGradient>
<linearGradient id="paint2_linear" x1="428.82" y1="250.602" x2="1078.84" y2="-34.2324" gradientUnits="userSpaceOnUse">
<stop stop-color="#EAEAEA"/>
<stop offset="1" stop-color="#EAEAEA" stop-opacity="0"/>
</linearGradient>
<linearGradient id="paint3_linear" x1="428.82" y1="250.602" x2="1078.84" y2="-34.2324" gradientUnits="userSpaceOnUse">
<stop stop-color="#EAEAEA"/>
<stop offset="1" stop-color="#EAEAEA" stop-opacity="0"/>
</linearGradient>
<linearGradient id="paint4_linear" x1="428.82" y1="250.602" x2="1078.84" y2="-34.2324" gradientUnits="userSpaceOnUse">
<stop stop-color="#EAEAEA"/>
<stop offset="1" stop-color="#EAEAEA" stop-opacity="0"/>
</linearGradient>
<linearGradient id="paint5_linear" x1="428.82" y1="250.602" x2="1078.84" y2="-34.2324" gradientUnits="userSpaceOnUse">
<stop stop-color="#EAEAEA"/>
<stop offset="1" stop-color="#EAEAEA" stop-opacity="0"/>
</linearGradient>
<linearGradient id="paint6_linear" x1="428.82" y1="250.602" x2="1078.84" y2="-34.2324" gradientUnits="userSpaceOnUse">
<stop stop-color="#EAEAEA"/>
<stop offset="1" stop-color="#EAEAEA" stop-opacity="0"/>
</linearGradient>
<linearGradient id="paint7_linear" x1="428.82" y1="250.602" x2="1078.84" y2="-34.2324" gradientUnits="userSpaceOnUse">
<stop stop-color="#EAEAEA"/>
<stop offset="1" stop-color="#EAEAEA" stop-opacity="0"/>
</linearGradient>
<linearGradient id="paint8_linear" x1="428.82" y1="250.602" x2="1078.84" y2="-34.2324" gradientUnits="userSpaceOnUse">
<stop stop-color="#EAEAEA"/>
<stop offset="1" stop-color="#EAEAEA" stop-opacity="0"/>
</linearGradient>
<linearGradient id="paint9_linear" x1="428.82" y1="250.602" x2="1078.84" y2="-34.2324" gradientUnits="userSpaceOnUse">
<stop stop-color="#EAEAEA"/>
<stop offset="1" stop-color="#EAEAEA" stop-opacity="0"/>
</linearGradient>
<linearGradient id="paint10_linear" x1="428.82" y1="250.602" x2="1078.84" y2="-34.2324" gradientUnits="userSpaceOnUse">
<stop stop-color="#EAEAEA"/>
<stop offset="1" stop-color="#EAEAEA" stop-opacity="0"/>
</linearGradient>
<linearGradient id="paint11_linear" x1="428.82" y1="250.602" x2="1078.84" y2="-34.2324" gradientUnits="userSpaceOnUse">
<stop stop-color="#EAEAEA"/>
<stop offset="1" stop-color="#EAEAEA" stop-opacity="0"/>
</linearGradient>
<linearGradient id="paint12_linear" x1="428.82" y1="250.602" x2="1078.84" y2="-34.2324" gradientUnits="userSpaceOnUse">
<stop stop-color="#EAEAEA"/>
<stop offset="1" stop-color="#EAEAEA" stop-opacity="0"/>
</linearGradient>
<linearGradient id="paint13_linear" x1="428.82" y1="250.602" x2="1078.84" y2="-34.2324" gradientUnits="userSpaceOnUse">
<stop stop-color="#EAEAEA"/>
<stop offset="1" stop-color="#EAEAEA" stop-opacity="0"/>
</linearGradient>
<linearGradient id="paint14_linear" x1="428.82" y1="250.602" x2="1078.84" y2="-34.2324" gradientUnits="userSpaceOnUse">
<stop stop-color="#EAEAEA"/>
<stop offset="1" stop-color="#EAEAEA" stop-opacity="0"/>
</linearGradient>
<linearGradient id="paint15_linear" x1="428.82" y1="250.602" x2="1078.84" y2="-34.2324" gradientUnits="userSpaceOnUse">
<stop stop-color="#EAEAEA"/>
<stop offset="1" stop-color="#EAEAEA" stop-opacity="0"/>
</linearGradient>
<linearGradient id="paint16_linear" x1="428.82" y1="250.602" x2="1078.84" y2="-34.2324" gradientUnits="userSpaceOnUse">
<stop stop-color="#EAEAEA"/>
<stop offset="1" stop-color="#EAEAEA" stop-opacity="0"/>
</linearGradient>
<linearGradient id="paint17_linear" x1="428.82" y1="250.602" x2="1078.84" y2="-34.2324" gradientUnits="userSpaceOnUse">
<stop stop-color="#EAEAEA"/>
<stop offset="1" stop-color="#EAEAEA" stop-opacity="0"/>
</linearGradient>
<linearGradient id="paint18_linear" x1="428.82" y1="250.602" x2="1078.84" y2="-34.2324" gradientUnits="userSpaceOnUse">
<stop stop-color="#EAEAEA"/>
<stop offset="1" stop-color="#EAEAEA" stop-opacity="0"/>
</linearGradient>
<linearGradient id="paint19_linear" x1="428.82" y1="250.602" x2="1078.84" y2="-34.2324" gradientUnits="userSpaceOnUse">
<stop stop-color="#EAEAEA"/>
<stop offset="1" stop-color="#EAEAEA" stop-opacity="0"/>
</linearGradient>
<linearGradient id="paint20_linear" x1="428.82" y1="250.602" x2="1078.84" y2="-34.2324" gradientUnits="userSpaceOnUse">
<stop stop-color="#EAEAEA"/>
<stop offset="1" stop-color="#EAEAEA" stop-opacity="0"/>
</linearGradient>
<linearGradient id="paint21_linear" x1="428.82" y1="250.602" x2="1078.84" y2="-34.2324" gradientUnits="userSpaceOnUse">
<stop stop-color="#EAEAEA"/>
<stop offset="1" stop-color="#EAEAEA" stop-opacity="0"/>
</linearGradient>
<linearGradient id="paint22_linear" x1="428.82" y1="250.602" x2="1078.84" y2="-34.2324" gradientUnits="userSpaceOnUse">
<stop stop-color="#EAEAEA"/>
<stop offset="1" stop-color="#EAEAEA" stop-opacity="0"/>
</linearGradient>
<linearGradient id="paint23_linear" x1="428.82" y1="250.602" x2="1078.84" y2="-34.2324" gradientUnits="userSpaceOnUse">
<stop stop-color="#EAEAEA"/>
<stop offset="1" stop-color="#EAEAEA" stop-opacity="0"/>
</linearGradient>
<linearGradient id="paint24_linear" x1="428.82" y1="250.602" x2="1078.84" y2="-34.2324" gradientUnits="userSpaceOnUse">
<stop stop-color="#EAEAEA"/>
<stop offset="1" stop-color="#EAEAEA" stop-opacity="0"/>
</linearGradient>
<linearGradient id="paint25_linear" x1="428.82" y1="250.602" x2="1078.84" y2="-34.2324" gradientUnits="userSpaceOnUse">
<stop stop-color="#EAEAEA"/>
<stop offset="1" stop-color="#EAEAEA" stop-opacity="0"/>
</linearGradient>
<linearGradient id="paint26_linear" x1="428.82" y1="250.602" x2="1078.84" y2="-34.2324" gradientUnits="userSpaceOnUse">
<stop stop-color="#EAEAEA"/>
<stop offset="1" stop-color="#EAEAEA" stop-opacity="0"/>
</linearGradient>
<linearGradient id="paint27_linear" x1="428.82" y1="250.602" x2="1078.84" y2="-34.2324" gradientUnits="userSpaceOnUse">
<stop stop-color="#EAEAEA"/>
<stop offset="1" stop-color="#EAEAEA" stop-opacity="0"/>
</linearGradient>
<linearGradient id="paint28_linear" x1="428.82" y1="250.602" x2="1078.84" y2="-34.2324" gradientUnits="userSpaceOnUse">
<stop stop-color="#EAEAEA"/>
<stop offset="1" stop-color="#EAEAEA" stop-opacity="0"/>
</linearGradient>
<linearGradient id="paint29_linear" x1="428.82" y1="250.602" x2="1078.84" y2="-34.2324" gradientUnits="userSpaceOnUse">
<stop stop-color="#EAEAEA"/>
<stop offset="1" stop-color="#EAEAEA" stop-opacity="0"/>
</linearGradient>
<linearGradient id="paint30_linear" x1="428.82" y1="250.602" x2="1078.84" y2="-34.2324" gradientUnits="userSpaceOnUse">
<stop stop-color="#EAEAEA"/>
<stop offset="1" stop-color="#EAEAEA" stop-opacity="0"/>
</linearGradient>
<linearGradient id="paint31_linear" x1="428.82" y1="250.602" x2="1078.84" y2="-34.2324" gradientUnits="userSpaceOnUse">
<stop stop-color="#EAEAEA"/>
<stop offset="1" stop-color="#EAEAEA" stop-opacity="0"/>
</linearGradient>
<clipPath id="clip0">
<rect width="16.5451" height="16.5451" fill="white" transform="translate(98.4346 239.434)"/>
</clipPath>
</defs>
</svg>
